<?xml version="1.0" encoding="utf-8"?>
<!-- Generator: Adobe Illustrator 23.0.1, SVG Export Plug-In . SVG Version: 6.00 Build 0)  -->
<svg version="1.1" id="Camada_1" xmlns="http://www.w3.org/2000/svg" xmlns:xlink="http://www.w3.org/1999/xlink" x="0px" y="0px"
	 viewBox="0 0 777.5 833.7" style="enable-background:new 0 0 777.5 833.7;" xml:space="preserve">
<style type="text/css">
	.st0{display:none;}
	.st1{display:inline;fill:#030404;}
	.st2{display:inline;fill:#FFFFFF;stroke:#1D1D1B;stroke-width:0.25;stroke-miterlimit:10;}
	.st3{display:inline;fill:#F4E1A7;}
	.st4{display:inline;fill:#EEDAD2;}
	.st5{display:inline;fill:#FFFFFF;}
	.st6{fill:#F7DEA5;}
	.st7{fill:#F3D9D1;}
	.st8{fill:#FFFFFF;}
</style>
<g class="st0">
	<path class="st1" d="M458.5,785.5c1.9,2.9,3.9,5.9,5.8,8.8c0.9,1.3,1.7,2.7,0.3,3.9c-1.7,1.5-3,0.2-4.1-1.1c-1-1.3-2-2.6-3-4.1
		c-1.3,4.8-1.2,6.7,0.5,13.1c0.4,1.4,0.8,2.8,1.3,4.1c0.7,1.8,0.7,3.5-1.4,4c-1.7,0.5-2.4-1-3-2.4c-2-5.5-3.2-11.2-3.3-17
		c-0.1-7.9,1.3-15.7,1.7-23.6c1.2-21.1-1.5-41.8-7.4-62.1c-0.7-2.5-1.9-3.6-4.5-4.2c-9.3-2.3-18-6.3-26.1-11.3
		c-5.4-3.3-10.3-7.1-12.2-13.3c-0.7,0-1.2-0.1-1.4,0c-24.5,14.4-50.8,16.7-78.2,11.9c-4.8-0.8-4.9-0.9-6.4,3.7
		c-5.5,16.7-10.5,33.6-13.2,51.1c-2.5,16.1-2.4,31.8,5.1,46.8c1.6,3.1,2.6,6.6,4,9.8c3,6.6,3.3,13.2,0.4,19.9
		c-1.2,2.7-2,5.4-3.1,8.1c-0.6,1.4-1.4,2.7-3.2,2.2c-2.3-0.7-1.7-2.6-1.1-4.1c1.2-3.3,2.5-6.6,3.7-9.9c1.8-5,1.4-9.7-1.4-14.5
		c-2.6,0.8-2.3,3.3-3.3,4.9c-0.7,1.1-1.3,2.2-2.9,1.8c-1.9-0.6-1.8-2.1-1.4-3.6c0.9-3,2.1-5.8,3.1-8.8c0.8-2.2,1.4-4.4-0.6-6.4
		c-1.7-0.1-1.7,1.5-2.3,2.4c-0.8,1.1-1.7,2-3,1.4c-1.7-0.8-1.5-2.3-1-3.8c0.9-2.3,1.8-4.6,2.8-6.9c0.7-1.6,0.9-3.1-1-4.4
		c-1.7,1-1.8,3.1-2.9,4.5c-0.9,1.2-2.1,1.5-3.3,0.8c-1-0.6-1.1-1.7-0.7-2.8c0.3-1,0.7-1.9,1.3-2.8c3.2-5.5,4.6-11.2,4.7-17.7
		c0.5-21.3,5.8-41.8,12.4-62c1.2-3.7,2.4-7.5,3.6-11.4c-6.9-2.4-13.6-4.5-20.1-7c-26.2-10.3-49.5-25.7-72.4-42.1
		c-32.1-23-57.9-52-80.8-83.9c-8.3-11.5-13.9-23.9-15-38.3c-0.9-11.1-5-21.3-9.3-31.4c-3.8-9-6.3-18.4-6.5-28.3
		c-0.1-5.9,0.4-11.7,2.6-17.1c5.4-13.3,6-27,3.4-40.9c-0.9-4.9-0.9-9.9-1.2-14.9c-0.6-11.7,4.9-20.3,13.9-26.9c2.7-2,5.6-3.6,8.6-5
		c6.2-3,10.7-7.6,14.3-13.4c3.2-5.3,6.2-10.9,11.1-14.9c2.5-2,0.8-3.6-0.3-5.3c-6.4-9.9-13.4-19.5-20.8-28.7
		c-30.9-38.4-67.6-70-110.6-94.4c-4-2.3-7.7-3.9-12.7-2.2c-4.6,1.6-9.9,1-14.6-1.1c-2-0.9-3.7-2.2-3.7-4.5c0-2.4,1.8-3.6,3.8-4.5
		c3-1.4,6.2-1,9.2-0.4c4.7,0.9,9.2,2.5,13.4,4.8c57.1,31,103.5,73.6,139.5,127.7c2.9,4.3,2.9,4.3,7.7,2.7c3.7-1.2,7.5-2.4,11.3-3.5
		c7.6-2.3,13.6-6.7,18.5-12.9c2.1-2.7,2-4.3-0.2-6.8c-6.6-7.2-12.4-15-18-23c-13-18.7-20-39.9-24.7-61.9
		c-5.2-24.6-7.4-49.6-9.8-74.6c-1.6-16.5-4-32.9-6.6-49.3c-0.9-5.3-1.8-10.6-1.7-16.1c0.1-8.4,4.4-13,12.8-13.9
		c2.9-0.3,5.8-0.1,8.7,0.5c12.5,2.9,24.9,6.3,36.9,11c17.7,7,31.1,19.4,42.7,34.2c20.1,25.8,30.9,55.5,36.8,87.3
		c3.8,20.4,5.6,41.1,7.1,61.8c0.1,1.2,0.2,2.4,0.3,3.8c2.5,0.4,4.1-1.2,5.7-2.2c4.6-2.8,9.1-5.8,13.5-9c9.9-7.1,20.5-7.2,31.7-3.6
		c12.9,4.2,26.2,5.6,39.7,4.7c3-0.2,3.7-1.6,4.2-4.2c3.9-20.2,9.2-40,16.2-59.3c11.6-31.9,26.6-62.1,48-88.7
		c2.5-3.1,4.9-6.2,8.3-8.4c2.4-1.5,5-2.5,7.5-0.6c2.4,1.8,1.7,4.5,1.2,6.9c-0.7,3.4-2.6,6.1-5.5,8c-2.9,2-6,3.8-9.5,4.6
		c-4.4,1-7.1,3.8-9.5,7.3c-15.8,23.3-27.5,48.6-37,75.1c-6.3,17.6-11,35.6-14.7,53.9c-0.2,0.8-0.1,1.6-0.1,2.5
		c-0.6,2,0.4,1.9,1.8,1.4c7.4-0.9,14.8-1.5,22.2-2.9c16.3-3.1,28.9,2.5,38.3,15.7c4,5.6,7.7,11.3,11.7,16.9c2.5,3.5,5.1,7,7.9,10.4
		c2.5,3,5.4,5.6,9.2,7.3c1.8-3,1.6-6.1,2.4-9.1c7.9-30.6,18.8-60.1,34.8-87.5c12-20.5,27.3-38.6,43.9-55.5
		c34.2-34.7,73.7-62.4,115.9-86.3c15.3-8.7,31.1-16.6,46.8-24.5c16.7-8.4,33.1-17.1,48.8-27.2c1.8-1.2,3.6-3,6.1-2.4
		c1,1.2,0.4,2.5,0,3.6c-17.1,51.7-30.8,104.5-49.6,155.6c-7.4,20-15.8,39.6-25.8,58.5c-14.5,27.4-34.8,49.2-60.9,66
		c-28,18-57.8,32.4-89.3,43c-1.2,0.4-2.4,0.8-3.5,1.2c-0.4,0.1-0.7,0.4-1,0.7c-0.1,0.6,0,1.2,0.6,1.6c14.4,7.1,25.8,18,36.9,29.2
		c9.8,9.9,17.9,21.2,26,32.5c0,0.7,0.2,1.3,0.9,1.6c0,0,0.1,0.1,0.1,0.1c2.7,5.1,5.6,10.2,8,15.4c17.1,36.7,22.1,75.3,17.3,115.2
		c-4.8,39.7-18,76.7-41.4,109.3c-31.6,43.9-73,71.6-128.6,74.6c-5.1-0.3-10.2-0.7-15.8-1.1c0,3.2,1.1,5.8,1.8,8.5
		c3,12.3,4.8,24.8,5.3,37.5c0.2,6.3,0.6,12.5,6.6,16.5c0.5,0.3,0.9,0.9,1.2,1.4c0.8,1.2,0.9,2.3-0.3,3.3c-0.9,0.8-1.9,0.6-2.8,0
		c-1.5-1-2.3-2.9-4.3-3.2c-1,1.6-0.1,2.9,0.7,4.1c2,2.6,4.1,5.2,6.1,7.9c1.1,1.5,3.7,3.1,1.2,5.1c-2.4,2-3.5-1-4.9-2.2
		c-0.6-0.5-1.2-1.1-1.8-1.7c-0.5-0.7-1-2.3-2-1.5C456.6,783.5,457.7,784.6,458.5,785.5z M563.9,319.2l0.1,0c1.6-0.5,3.2-0.8,4.7-1.4
		c25.7-10.1,50.2-22.5,73.1-37.9c8.2-5.6,16.1-11.6,23.5-18.2c10.3-9.2,18.7-19.9,25.9-31.6c13.4-21.5,24-44.3,32.1-68.3
		c1.4-1.4,1.4-3.3,1.9-5.1c4.3-9.9,7.7-20.1,10.9-30.3c9.3-29.6,18.4-59.2,27.5-88.9c2.2-7.1,5.1-14,6.4-21.3
		c1.5-3.4,3.2-6.7,2.9-10.8c-3.5,0.4-5.7,2.6-7.9,4.5c-0.6,0.2-1.2,0.2-1.7,0.5c-13,7.7-26.3,14.8-39.7,21.6
		c-7.2,3.6-14.3,7.4-21.4,11.1c-2.3,0.5-4.1,2-6.1,3.2c-2.2,1.1-4.5,2-6.7,3.2c-13.5,7.2-26.8,14.9-39.8,23.1
		c-36.3,22.9-69.7,49.2-98.9,80.8c-36,39-56.9,85.4-68.6,136.6c-1.1,4.7-1,4.9,3.8,6.8c7.5,3,15.1,5.6,23,7.5c1.5,1.2,3.3,1.4,5,1.7
		c9.7,4.8,19,10.1,24.8,19.7c1.1,1.8,3,1.8,4.3,1.2c4.7-2.3,10-2.6,14.5-5.3c1.9,0,3.3-1.3,4.8-2.2
		C562.9,319.9,563.4,319.7,563.9,319.2z M209.8,77.6c-0.4-0.6-1-0.9-1.7-0.8c-1.5-2-3.8-2.5-6.1-3c-13.5-6.3-27.9-10-42.4-12.8
		c-3.2-0.6-6.6-0.2-9.5,1.7c-0.8,0.2-1.6,0.4-1.9,1.4c-3.5,2.3-3.5,5.9-3.3,9.4c0.3,4.7,0.9,9.5,1.6,14.1c3.4,21,6,42.1,8,63.2
		c0.9,9,1.2,18.1,3.4,26.9c-0.3,1.3-0.2,2.5,0.3,3.7c2.5,23.5,7.2,46.6,16.5,68.5c7.2,16.7,17.5,31.4,29.9,44.6
		c3,3.2,3.1,3.2,4.9,0.4c1-1.5,1.7-3.1,2.6-4.7c2-1.8,3.1-4.4,4.5-6.6c5.3-8.5,11.1-16.4,19.6-22c1.4-0.2,2.8-0.3,3.8-1.4
		c5.2-1.4,10.2-0.8,15.3,0.7c7.9,2.4,16,1.8,24,0c5.5-1.3,5.7-1.6,5.3-7c-1.5-20.6-3.3-41.3-7.1-61.7c-5.9-31.5-16.4-61.1-36.5-86.6
		C232.2,94.4,222.7,84.2,209.8,77.6L209.8,77.6z M168.3,327.1c-5.2,3.3-7.9,7.8-10.5,12.3c-4.9,8.6-11.2,15.4-20.5,19.1
		c-1.5,0.6-2.9,1.6-4.3,2.5c-8.8,6.2-14.3,14.2-13.7,25.6c0.2,4.3,0.2,8.7,1,13c2.8,15,2.3,29.7-3.5,44c-2,4.9-2.5,10-2.3,15.3
		c0.2,8.6,1.8,16.9,5.2,24.8c5.6,13,10.1,26.3,11.5,40.5c0.9,9.3,4.5,17.6,9.6,25.3c15.4,23.3,33,44.8,53.2,64
		c15.3,14.7,32.5,27.1,50.1,38.9c20.2,13.6,41.3,25.4,64.7,32.6c34.3,10.6,67.4,9.9,98.6-10.1c4.3-2.7,9-4,14-4.8
		c9.5-1.6,19-1.5,28.6-0.9c14.8,0.9,26.6-4.5,34.2-17.2c9.1-15.3,20.2-28.8,33.5-40.6c7.2-6.4,11-15,12.4-24.5
		c1.4-9.6,2.5-19.3,3.8-29c2-14.1,5.9-27.5,14-39.5c4.6-6.9,9.2-13.8,13.8-20.7c5.1-7.8,10-15.7,13-24.7c4.5-13.5,3.9-26.4-3.8-38.8
		c-4.6-7.4-9.7-14.5-14.6-21.6c-8.3-12-12.4-25.2-12.1-39.8c0.2-7.9,0.3-15.8,0.2-23.7c-0.1-18.3-8.9-31-25.4-38.6
		c-7.2-3.3-14.7-5.6-22.3-7.8c-15.8-4.6-28.2-13.5-36.7-27.8c-3.8-6.4-8.1-12.5-12.9-18.3c-8.2-9.9-18.4-14.3-31.4-12.1
		c-7.6,1.3-15.2,2.5-22.8,3.2c-3.8,0.3-5.2,1.7-5.7,5.5c-2.7,17.9-4.3,35.8-4.4,53.9c0,3.7,0,7.5,0,11.2c0,1.3-0.5,2.6-1.9,2.8
		c-1.8,0.2-2.5-1.2-2.7-2.7c-0.1-0.6-0.1-1.2-0.1-1.9c-0.3-13.9,0.3-27.8,1.7-41.6c0.9-8.4,2-16.8,3-25c-1.1-0.9-2.1-0.7-3.1-0.6
		c-14.7,1.3-28.8-1.4-42.8-5.6c-9-2.7-17.6-1.9-25.5,3.5c-4.8,3.3-9.6,6.5-14.5,9.6c-12.8,8-26.5,10.3-41.1,6.2
		c-8.5-2.4-15.5-0.1-21.8,5.5c-2.7,2.4-5,5-6.9,8c-5.2,8-10.5,16-15.6,24c-6.4,10-14.8,17.2-26.7,19.9c-3.2,0.7-6.3,2-9.5,3.1
		c-1.8,0.6-2.2,1.7-1.2,3.3c0.9,1.6,1.9,3.2,2.9,4.8c6,10.4,11.7,21,15.9,32.3c0.5,1.4,1,2.7,1.3,4.1c0.2,1.1-0.4,2-1.4,2.5
		c-1.1,0.5-2.1,0-2.6-1c-0.7-1.3-1.1-2.7-1.7-4C183,352.1,176.2,339.6,168.3,327.1z"/>
	<path class="st1" d="M713.1,747.2c1.6,1.3,3.1,2.7,4.7,4c0.9,0.8,1.8,1.8,1,3.2c-0.6,1-1.5,1.4-2.6,1.1c-0.9-0.2-2.1-0.9-2.5,0.6
		c-0.3,0.9,0.5,1.4,1,2c1.5,1.6,5.4,2.7,2.8,5.6c-2.1,2.3-3.9-0.9-5.7-1.9c-0.8-0.5-1.5-1.4-2.9-1c0,4.7,2.1,8.7,4.4,12.6
		c1,1.6,2.2,3,3.2,4.6c0.9,1.3,2.3,2.8,0.4,4.3c-1.9,1.5-3,0-4-1.4c-4.1-5.3-7.4-10.9-8.7-17.7c-1.6-8.8-2.8-17.6-3.3-26.5
		c-0.6-8.6-1.5-17.2-1.2-26.1c-1.1,0.1-1.8,0-2.3,0.2c-17.2,9-35.8,13-54.7,15.6c-16.4,2.3-33,3.9-49.6,3.6
		c-13.3-0.2-26.5-1.8-39.6-3.8c-3.7-0.6-7.5-1.1-10.7-3.1c-3-1.8-4.4-0.4-6,1.9c-5.1,7.1-9.2,14.8-12.6,22.8
		c-2.7,6.5-5,13.2-7.2,19.8c-1,3-0.6,5.2,1.4,7.4c1.2,1.4,2.4,2.9,3.6,4.3c0.7,0.9,0.9,1.9,0.5,2.9c-0.6,1.5-1.9,1.3-3.2,1.2
		c-1.4-1.9-2.6-4-5.6-5.5c0.7,2.9,1.7,4.6,3.3,5.9c1.3,2.1,2.8,4.1,3.9,6.3c1.4,2.6,0.9,4.2-2,4.1c-3.6-0.1-2.8,1.3-1.8,3.3
		c0.4,0.7,0.9,1.4,1.1,2.2c0.4,1.1,0.2,2-0.9,2.6c-1,0.6-2,0.3-2.9-0.4c-1.4-1.1-1.5-3.4-3.9-4.2c-1.3,5.6-1.1,11,0.7,16.4
		c0.7,2,2.8,4.7-0.4,5.8c-3.1,1.1-3.2-2.3-4-4.3c-2.8-6.8-2.2-13.8-1.1-20.8c3.4-20.7,9.3-40.7,18.9-59.5c2.2-4.3,4.4-8.5,7.5-12.1
		c2.6-3,3.3-5.8,1.6-9.3c2.5-0.3,4.9-0.8,7.4-1c12.6-0.9,25.3-1.6,37.9-2.7c16-1.4,31.6-4.5,46.5-10.7c15.8-6.7,28-17,36.2-32.5
		c18.1-34.2,23-70.6,20.2-108.6c-1.2-16.3-3-32.6-4.1-49c-1.4-20.7-7.2-39.9-18.9-57.1c-7-10.3-14.2-20.4-21.3-30.6
		c-1-1.5-2.8-2.7-2.1-4.9c3.6-1,6.9-0.5,10.1,1.7c23.2,16.2,43.4,35.4,56.5,60.9c14.1,27.5,22.8,56.7,26.6,87.5
		c2.6,21.2,5.1,42.4,4.3,63.8c-0.6,17.6-2.5,35.1-9.5,51.7c-3.6,8.4-8.3,15.8-15.6,21.3c-2.9,2.2-3.7,4.5-3.6,7.8
		c0.3,5.2,0.4,10.4,0.4,15.5c0,4.1,1.6,7.1,5.1,9.2c2.1,1.3,4,2.9,6,4.4c1.2,0.9,2.3,1.9,1.3,3.6c-1,1.7-2.4,1.1-3.8,0.6
		c-2.1-2.1-4.4-3.7-7.2-4.8C707.6,743.6,710.2,745.6,713.1,747.2z M710,751.4c-0.6-0.4-1-1.5-1.9-0.7c-0.9,0.7-0.3,1.4,0.3,1.9
		c0.7,0.7,1.3,1.4,2.1,2c0.4,0.3,1,0.7,1.6,0.1c0.7-0.7,0.5-1.4-0.1-2C711.4,752.2,710.7,751.9,710,751.4z M514.6,790.3
		c-0.3,0.1-0.5,0.3-0.8,0.4c0.1,0.1,0.3,0.4,0.4,0.4c0.3-0.1,0.6-0.2,0.8-0.4C514.9,790.6,514.8,790.5,514.6,790.3z M516.1,793.1
		c-0.2-0.2-0.3-0.3-0.4-0.4c-0.1,0.3-0.3,0.5-0.4,0.8c0,0.1,0.3,0.3,0.4,0.4C515.8,793.6,516,793.3,516.1,793.1z"/>
	<path class="st2" d="M635.6,417c-0.7,2.2,1.1,3.4,2.1,4.9c7.1,10.2,14.3,20.4,21.3,30.6c11.7,17.2,17.5,36.4,18.9,57.1
		c1.1,16.3,3,32.6,4.1,49c2.8,37.9-2.1,74.4-20.2,108.6c-8.2,15.5-20.3,25.9-36.2,32.5c-14.9,6.3-30.5,9.3-46.5,10.7
		c-12.6,1.1-25.2,1.8-37.9,2.7c-2.5,0.2-4.9,0.7-7.4,1c-13,0-26,0.3-39-0.3c-9.6-0.4-19.2-2.1-28.2-5.8c55.5-3,97-30.7,128.6-74.6
		c23.4-32.6,36.6-69.6,41.4-109.3c4.9-39.9-0.1-78.5-17.3-115.2c-2.4-5.2-5.3-10.3-8-15.4c2.1-0.5,2.9,1.2,4,2.3
		c6,5.6,11.5,11.7,16.3,18.3C632.8,415.6,633.8,416.7,635.6,417z"/>
	<path class="st3" d="M611.4,393.6c-0.7-0.3-0.9-0.9-0.9-1.6C611.3,392.2,611.7,392.6,611.4,393.6z"/>
	<path class="st2" d="M168.3,327.1c7.9,12.5,14.7,25,19.8,38.4c0.5,1.4,1,2.7,1.7,4c0.5,0.9,1.5,1.5,2.6,1c1-0.5,1.6-1.4,1.4-2.5
		c-0.3-1.4-0.8-2.8-1.3-4.1c-4.2-11.3-9.9-21.9-15.9-32.3c-0.9-1.6-1.9-3.2-2.9-4.8c-0.9-1.6-0.6-2.7,1.2-3.3c3.2-1,6.2-2.4,9.5-3.1
		c11.9-2.6,20.3-9.9,26.7-19.9c5.2-8,10.4-16,15.6-24c1.9-3,4.3-5.6,6.9-8c6.3-5.6,13.4-7.9,21.8-5.5c14.6,4.2,28.3,1.9,41.1-6.2
		c4.9-3.1,9.8-6.3,14.5-9.6c7.9-5.5,16.5-6.2,25.5-3.5c14,4.2,28.1,6.9,42.8,5.6c1-0.1,2.1-0.3,3.1,0.6c-1,8.3-2.1,16.6-3,25
		c-1.4,13.8-2,27.7-1.7,41.6c0,0.6,0,1.3,0.1,1.9c0.2,1.6,0.9,2.9,2.7,2.7c1.4-0.2,1.9-1.5,1.9-2.8c0-3.7,0-7.5,0-11.2
		c0.1-18.1,1.7-36,4.4-53.9c0.6-3.8,1.9-5.2,5.7-5.5c7.6-0.7,15.2-1.9,22.8-3.2c12.9-2.2,23.2,2.2,31.4,12.1
		c4.8,5.8,9.1,11.9,12.9,18.3c8.5,14.3,20.9,23.2,36.7,27.8c7.6,2.2,15.1,4.5,22.3,7.8c16.5,7.6,25.3,20.3,25.4,38.6
		c0.1,7.9-0.1,15.8-0.2,23.7c-0.3,14.6,3.9,27.7,12.1,39.8c4.9,7.2,10,14.3,14.6,21.6c7.8,12.4,8.3,25.3,3.8,38.8
		c-3,9-7.8,16.9-13,24.7c-4.6,6.9-9.2,13.8-13.8,20.7c-8,12-12,25.4-14,39.5c-1.3,9.7-2.4,19.3-3.8,29c-1.4,9.5-5.1,18.1-12.4,24.5
		c-13.4,11.8-24.4,25.3-33.5,40.6c-7.6,12.8-19.4,18.1-34.2,17.2c-9.5-0.6-19.1-0.7-28.6,0.9c-5,0.8-9.7,2.1-14,4.8
		c-31.2,20-64.3,20.7-98.6,10.1c-23.4-7.3-44.5-19.1-64.7-32.6c-17.6-11.8-34.8-24.2-50.1-38.9c-20.1-19.3-37.8-40.7-53.2-64
		c-5.1-7.8-8.7-16-9.6-25.3c-1.3-14.2-5.9-27.5-11.5-40.5c-3.4-7.9-4.9-16.2-5.2-24.8c-0.1-5.2,0.4-10.4,2.3-15.3
		c5.8-14.3,6.2-29,3.5-44c-0.8-4.3-0.7-8.7-1-13c-0.7-11.4,4.9-19.4,13.7-25.6c1.3-1,2.8-1.9,4.3-2.5c9.3-3.7,15.6-10.6,20.5-19.1
		C160.4,334.9,163.1,330.4,168.3,327.1z M251.6,602.8c7-0.1,11.9-0.7,16.9-1.2c3.6-0.3,4.9-2.1,5.7-5.3c3-12,2.3-23.8-2-35.4
		c-5.6-14.8-15.9-25.9-27.9-35.8c-16.4-13.6-35-16.4-55.5-12.9c-15.4,2.6-28.9,9.9-43.2,15.1c-0.4,0.1-0.8,0.3-1.1,0.5
		c-1.2,0.8-1.5,1.9-1,3.2c0.4,1.1,1.4,1.6,2.5,1.4c1.6-0.3,3.3-0.7,4.7-1.4c2.3-1.1,3.4-0.4,4,2c0.3,1.2,0.7,2.4,1.1,3.6
		c8.9,24.9,24.4,44.1,48.5,55.5C219.8,599.4,236.5,602.2,251.6,602.8z M447.1,477.1c-1.9-0.1-3.6-0.3-5.2-0.4
		c-17.6-0.8-32.5,4.7-44.2,18.3c-19.8,23-26.4,50.1-25.7,79.6c0.1,4,0.7,4.4,5,4.6c6.4,0.3,12.8-0.2,19.2-1.2
		c23.5-3.7,43.1-14.3,57.3-33.8c11.1-15.3,15.4-32.8,15.7-51.5c0.1-2.7-1.3-5.9,0.5-7.8c2.2-2.3,5.4,0.2,8.2,0.3
		c1.8,0,4,1.1,4.6-1.6c0.6-2.5-1.5-3-3.4-3.5c-1-0.3-2-0.4-3.1-0.5C466.3,478.1,456.5,477.3,447.1,477.1z"/>
	<path class="st2" d="M770,16.2c-1.8-0.1-2.4,1.2-3.2,2.4c-11.5,17.5-22.7,35.1-34.5,52.3c-12.8,18.8-25.9,37.4-39.4,55.6
		c-7.3,9.8-15.5,18.8-23.7,27.8c-9.8,10.9-19,22.4-28.8,33.2c-6.7,7.3-12.6,15.3-19.6,22.4c-4,4.1-7.6,8.7-11.7,12.8
		c-9.2,9-19.2,16.9-28.9,25.2c-9.7,8.3-19.4,16.8-29.2,25c-10.6,8.9-21.3,17.6-32,26.4c-2.2,1.8-5,3.1-5,6.6c-1.8-0.3-3.6-0.5-5-1.7
		c0-1.7,0.2-3.2,1.7-4.4c10.1-8.1,20.3-16.3,30.3-24.5c6.7-5.5,13.2-11.2,19.8-16.9c7.6-6.4,15.2-12.7,22.7-19.2
		c13.8-11.9,27.1-24.3,38.9-38.2c8.3-9.8,16.8-19.3,25.2-29c8.6-9.8,17.1-19.6,25.7-29.3c1.2-1.3,1.9-2.7,1.8-4.5
		c-0.4-9.1,0.1-18.1-0.8-27.2c-1.2-11.6,1.8-22.9,6.3-33.7c3.6-8.6,8.3-16.6,13.5-24.3c1.4-2.1,3.1-4,2-6.8c2-1.2,3.8-2.7,6.1-3.2
		c2.2,1.5,2.1,3.4,0.8,5.4c-0.9,1.4-1.8,2.8-2.8,4.1c-5.7,8.2-10.8,16.6-15.1,25.6c-1.3,2.6-1,4.2,2,5.1c4,1.1,8,2.3,12.1,2.4
		c11.3,0.3,20.3-5.1,26.4-13.8c12.9-18.2,24.9-37.1,37.3-55.7c1.3-1.9,2.4-3.9,2.1-6.3c2.3-1.9,4.4-4.1,7.9-4.5
		C773.2,9.4,771.5,12.8,770,16.2z M713.7,88.8c-1.6-0.2-2.2-0.4-2.7-0.2c-8.1,3.3-16.1,2.2-24.2-0.3c-4.4-1.4-4.3-1.2-5.7,3.4
		c-4.3,13.4-0.8,26.9-0.6,40.4c0,0.1,0.3,0.2,1,0.6C693.2,119,703.3,104.1,713.7,88.8z"/>
	<path class="st2" d="M236.2,261.6c-2.7-18.8-7-37.3-11.9-55.6c-4.1-15.6-9.5-30.9-15.6-45.8c-6.4-15.7-14.1-30.9-23.1-45.3
		c-10.1-16.2-21.2-31.6-34.2-45.6c-1.5-1.6-2.3-3.4-3.3-5.3c0.3-1,1.1-1.2,1.9-1.4c1.3,0.5,2.8,0.7,3.8,1.9
		c5.1,6.7,11.3,12.6,16.2,19.4c2.4,3.4,5.5,6,9.3,7.9c9.6,4.9,20.2,7.2,29.9,11.8c0.5,0.2,1.2,0,1.8,0c1.1-1.8,0.6-3.6,0.2-5.4
		c-1.4-6.8-4.2-13-7.7-18.8c-1.1-1.9-1.7-3.7-1.5-5.8c2.3,0.5,4.6,1,6.1,3c0.3,0.8,0.8,1.2,1.7,0.8c0,0,0.1,0,0.1,0
		c-1.2,2.7,0.3,4.8,1.4,7c5.2,10.2,7.2,21.1,6.5,32.4c-0.5,8.6-3,17.1-5.4,25.3c-1.8,6-1.6,11.1,0.9,17.2
		c11.4,26.9,18.8,55,24.3,83.6c1.1,5.7,2.8,11.2,2.3,17.1C239,261.3,237.6,261.4,236.2,261.6z M207.1,143.6c2.1-8.4,4.1-15.7,5.7-23
		c0.5-2.2,0.1-4.5,0.2-6.8c0-1.6-0.6-2.7-2-3.5c-8.8-4.9-18.2-8.3-29-11.1C190.5,114.2,198.5,128.3,207.1,143.6z"/>
	<path class="st2" d="M723.4,161.7c-9.7-1.5-17.8,2.6-25.6,7.5c-10.4,6.5-19.7,14.2-28.9,22.4c-15.2,13.5-28.3,28.9-41.7,44.1
		c-21.5,24.3-41,50.2-60.2,76.4c-1.5,2-3.9,4-3,7.1c0,0-0.1,0-0.1,0c-0.6-0.6-1.1-0.4-1.5,0.2c-1.5,0.9-2.9,2.2-4.8,2.2
		c-0.6-3,1-5.1,2.5-7.4c7.4-11.4,15.7-22.3,24.1-33c10.9-14,21.8-28,33.2-41.5c7.1-8.3,14.2-16.6,21.7-24.6
		c6.3-6.8,12.6-13.7,19.3-20.1c12.8-12.4,26.4-23.7,41.9-32.7c7.8-4.5,16.2-6.1,25-5.5C724.8,158.4,724.7,160.3,723.4,161.7z"/>
	<path class="st2" d="M204.7,294.5c1.1-9.4-1.2-18.4-2.9-27.5c-3.7-19.9-10.1-39-17.8-57.8c-2.7-6.7-5.8-13.2-9.9-19.2
		c-3.8-5.5-8.5-9.7-15.9-8.6c-0.5-1.2-0.6-2.4-0.3-3.7c7.8-1.9,13.8,0.5,18.6,7.3c4.2,5.9,7.7,12.3,10.5,18.9
		c9.3,21.2,15.9,43.3,20.2,66c0.8,4.2,1.8,8.4,1.7,12.8c0,2.8,0.2,5.8,3.2,7.4c-0.8,1.6-1.6,3.2-2.6,4.7
		C207.7,297.7,207.7,297.7,204.7,294.5z"/>
	<path class="st4" d="M562.4,319.4c0.5-0.5,0.9-0.8,1.5-0.2C563.4,319.7,562.9,319.9,562.4,319.4z"/>
	<path class="st5" d="M388.9,245.2c-1.3,0.5-2.4,0.6-1.8-1.4C387.7,244.3,388.3,244.7,388.9,245.2z"/>
	<path class="st4" d="M209.8,77.6c-0.9,0.4-1.4,0-1.7-0.8C208.8,76.7,209.4,76.9,209.8,77.6z"/>
	<path class="st1" d="M251.6,602.8c-15.1-0.6-31.9-3.4-47.4-10.7c-24.2-11.4-39.6-30.6-48.5-55.5c-0.4-1.2-0.8-2.4-1.1-3.6
		c-0.5-2.3-1.7-3.1-4-2c-1.5,0.7-3.1,1.1-4.7,1.4c-1.1,0.2-2.1-0.3-2.5-1.4c-0.5-1.3-0.2-2.4,1-3.2c0.3-0.2,0.7-0.4,1.1-0.5
		c14.4-5.2,27.9-12.6,43.2-15.1c20.4-3.4,39-0.6,55.5,12.9c12,9.9,22.4,20.9,27.9,35.8c4.3,11.6,5,23.3,2,35.4
		c-0.8,3.3-2.1,5-5.7,5.3C263.6,602.1,258.6,602.7,251.6,602.8z M176.6,563.8c-2-18.5,5.5-33.3,17.9-47.1
		c-12.3,1.8-22.9,5.2-33.1,9.9c-2.6,1.2-3.2,2.4-2.3,5.2C162.6,543.5,168.2,554.2,176.6,563.8z M215.4,548.4
		c-0.1-4.7-4.1-8.6-8.8-8.7c-5.1,0-8.9,4-8.7,9.2c0.2,4.8,4.3,8.6,8.9,8.4C211.5,557.3,215.5,553.1,215.4,548.4z"/>
	<path class="st1" d="M447.1,477.1c9.5,0.2,19.2,1,28.8,2.5c1,0.2,2.1,0.3,3.1,0.5c1.8,0.5,4,1,3.4,3.5c-0.6,2.6-2.8,1.6-4.6,1.6
		c-2.8,0-6-2.6-8.2-0.3c-1.8,1.9-0.4,5.2-0.5,7.8c-0.4,18.7-4.6,36.2-15.7,51.5c-14.2,19.5-33.7,30.1-57.3,33.8
		c-6.4,1-12.8,1.5-19.2,1.2c-4.3-0.2-4.9-0.6-5-4.6c-0.7-29.5,6-56.6,25.7-79.6c11.7-13.6,26.6-19.1,44.2-18.3
		C443.5,476.8,445.1,476.9,447.1,477.1z M459.7,519.7c3.9-10.9,5-22.1,4.7-33.5c-0.1-2.6-1.7-2.9-3.6-3.1c-7.4-1-14.9-0.8-22.4-1.1
		c-1.5-0.1-3.2-0.6-4.7,0.9C446.5,492.3,458.1,502.4,459.7,519.7z M433.7,515.5c0-4.9-3.7-8.7-8.6-8.8c-4.8-0.1-8.8,3.7-8.9,8.5
		c-0.2,5,4.1,9.3,8.9,9.2C429.8,524.3,433.7,520.3,433.7,515.5z"/>
	<path class="st5" d="M176.6,563.8c-8.3-9.6-14-20.3-17.6-32.1c-0.9-2.8-0.3-4,2.3-5.2c10.2-4.7,20.8-8.1,33.1-9.9
		C182.1,530.5,174.5,545.3,176.6,563.8z"/>
	<path class="st5" d="M215.4,548.4c0.1,4.6-3.9,8.8-8.5,9c-4.6,0.2-8.7-3.7-8.9-8.4c-0.2-5.2,3.6-9.2,8.7-9.2
		C211.4,539.8,215.4,543.8,215.4,548.4z"/>
	<path class="st5" d="M459.7,519.7c-1.6-17.3-13.2-27.4-26-36.8c1.5-1.5,3.2-1,4.7-0.9c7.5,0.3,14.9,0.1,22.4,1.1
		c2,0.3,3.6,0.5,3.6,3.1C464.8,497.6,463.6,508.8,459.7,519.7z"/>
	<path class="st5" d="M433.7,515.5c0,4.8-3.9,8.8-8.5,8.9c-4.9,0.1-9.1-4.2-8.9-9.2c0.2-4.8,4.1-8.5,8.9-8.5
		C430,506.8,433.7,510.7,433.7,515.5z"/>
</g>
<g>
	<path d="M460.1,784.9c1.9,2.9,3.9,5.8,5.9,8.7c0.9,1.3,1.7,2.7,0.3,3.9c-1.7,1.5-3,0.2-4.1-1.1c-1-1.3-2-2.6-3-4
		c-1.3,4.8-1.2,6.7,0.5,13c0.4,1.4,0.8,2.8,1.3,4.1c0.7,1.8,0.7,3.4-1.3,4c-1.7,0.5-2.4-1-3-2.4c-2-5.5-3.2-11.1-3.3-17
		c-0.1-7.9,1.2-15.7,1.7-23.5c1.2-21.1-1.6-41.7-7.5-61.9c-0.7-2.5-1.9-3.6-4.5-4.2c-9.3-2.3-17.9-6.3-26.1-11.2
		c-5.4-3.3-10.2-7.1-12.2-13.2c-0.7,0-1.2-0.1-1.4,0c-24.4,14.4-50.6,16.8-78,12.1c-4.8-0.8-4.9-0.9-6.3,3.7
		c-5.4,16.7-10.4,33.5-13.1,51c-2.4,16.1-2.3,31.7,5.2,46.6c1.6,3.1,2.6,6.5,4,9.7c3,6.6,3.3,13.1,0.4,19.8c-1.1,2.7-2,5.4-3.1,8.1
		c-0.6,1.4-1.4,2.7-3.2,2.2c-2.3-0.7-1.7-2.5-1.1-4.1c1.2-3.3,2.4-6.6,3.7-9.9c1.8-4.9,1.3-9.7-1.4-14.4c-2.5,0.8-2.2,3.3-3.2,4.9
		c-0.7,1.1-1.3,2.2-2.9,1.8c-1.9-0.6-1.9-2.1-1.4-3.5c0.9-2.9,2.1-5.8,3.1-8.8c0.8-2.2,1.3-4.4-0.6-6.4c-1.7-0.1-1.7,1.5-2.3,2.4
		c-0.8,1.1-1.7,2-3,1.4c-1.7-0.8-1.5-2.3-1-3.7c0.9-2.3,1.8-4.6,2.8-6.9c0.7-1.6,0.9-3.1-1.1-4.4c-1.7,1-1.8,3.1-2.9,4.5
		c-0.9,1.2-2.1,1.5-3.2,0.8c-1-0.6-1.1-1.7-0.7-2.8c0.3-1,0.7-1.9,1.3-2.8c3.2-5.4,4.5-11.2,4.7-17.6c0.4-21.3,5.7-41.7,12.2-61.8
		c1.2-3.7,2.3-7.5,3.6-11.4c-6.9-2.4-13.6-4.4-20.1-7c-26.2-10.3-49.5-25.5-72.3-41.8c-32.1-22.9-57.9-51.7-80.8-83.5
		c-8.3-11.5-13.9-23.9-15.1-38.1c-0.9-11.1-5.1-21.2-9.4-31.3c-3.8-9-6.3-18.3-6.5-28.2c-0.1-5.9,0.4-11.6,2.5-17.1
		c5.3-13.3,5.9-27,3.3-40.9c-0.9-4.9-0.9-9.9-1.2-14.8c-0.7-11.7,4.8-20.2,13.8-26.9c2.6-2,5.6-3.6,8.6-5c6.2-3,10.7-7.6,14.2-13.4
		c3.2-5.3,6.1-10.9,11.1-14.8c2.5-2,0.8-3.6-0.3-5.3c-6.4-9.9-13.4-19.4-20.8-28.6c-30.9-38.3-67.7-69.7-110.6-93.9
		c-4-2.3-7.7-3.9-12.7-2.2c-4.6,1.6-9.9,1-14.6-1.1c-2-0.9-3.7-2.1-3.7-4.5c0-2.4,1.8-3.6,3.8-4.5c3-1.4,6.1-1,9.1-0.4
		c4.7,0.9,9.2,2.5,13.4,4.8c57,30.8,103.5,73.2,139.5,127c2.9,4.3,2.9,4.3,7.6,2.7c3.7-1.2,7.5-2.4,11.2-3.5
		c7.6-2.3,13.6-6.7,18.5-13c2.1-2.7,2-4.3-0.3-6.8c-6.6-7.2-12.4-14.9-18-22.9c-13.1-18.7-20.1-39.7-24.8-61.7
		c-5.3-24.5-7.5-49.5-10-74.4c-1.7-16.5-4.1-32.8-6.7-49.2c-0.9-5.3-1.8-10.6-1.8-16c0.1-8.4,4.3-13,12.7-13.9
		c2.9-0.3,5.8-0.2,8.6,0.5c12.5,2.8,24.9,6.2,36.8,10.9c17.7,6.9,31.1,19.2,42.7,34c20.1,25.7,30.9,55.3,37,87
		c3.9,20.4,5.7,41,7.3,61.6c0.1,1.2,0.2,2.4,0.3,3.8c2.5,0.4,4.1-1.2,5.7-2.2c4.6-2.8,9.1-5.8,13.4-9c9.9-7.2,20.4-7.3,31.6-3.7
		c12.9,4.1,26.1,5.5,39.6,4.6c3-0.2,3.6-1.6,4.1-4.2c3.8-20.1,9-39.9,16-59.2c11.5-31.9,26.4-62,47.6-88.7c2.5-3.1,4.9-6.2,8.2-8.4
		c2.4-1.5,5-2.5,7.5-0.7c2.4,1.8,1.8,4.5,1.2,6.9c-0.7,3.4-2.6,6-5.5,8c-2.9,2-6,3.8-9.4,4.6c-4.4,1-7,3.8-9.4,7.3
		c-15.7,23.3-27.4,48.6-36.7,75c-6.2,17.6-10.9,35.6-14.6,53.8c-0.2,0.8-0.1,1.6-0.1,2.5c-0.6,2,0.4,1.9,1.8,1.4
		c7.4-1,14.8-1.6,22.1-3c16.3-3.1,28.8,2.4,38.3,15.6c4,5.5,7.8,11.2,11.7,16.8c2.5,3.5,5.1,7,7.9,10.3c2.5,3,5.4,5.6,9.2,7.3
		c1.7-3,1.6-6.1,2.3-9c7.8-30.6,18.6-60,34.5-87.4c11.9-20.5,27.1-38.6,43.7-55.5c34-34.7,73.3-62.4,115.4-86.4
		c15.3-8.7,31-16.6,46.6-24.6c16.6-8.4,33-17.2,48.7-27.3c1.8-1.2,3.5-3,6.1-2.4c1,1.2,0.4,2.4,0,3.6
		c-16.9,51.6-30.5,104.3-49.1,155.4c-7.3,20-15.6,39.5-25.6,58.4c-14.4,27.4-34.6,49.2-60.6,66c-27.9,18.1-57.6,32.5-89,43.2
		c-1.2,0.4-2.4,0.8-3.5,1.2c-0.4,0.1-0.7,0.4-1,0.7c-0.1,0.6,0,1.2,0.6,1.6c14.4,7.1,25.8,17.9,36.9,29c9.8,9.9,17.9,21.1,26.1,32.3
		c0,0.7,0.2,1.3,0.9,1.6c0,0,0.1,0.1,0.1,0.1c2.7,5.1,5.6,10.1,8,15.3c17.2,36.5,22.3,75.1,17.5,114.9c-4.7,39.6-17.7,76.5-41,109.1
		c-31.4,43.9-72.7,71.6-128.1,74.8c-5.1-0.3-10.2-0.7-15.7-1c0.1,3.2,1.2,5.8,1.8,8.5c3.1,12.3,4.8,24.7,5.3,37.4
		c0.3,6.3,0.7,12.4,6.6,16.4c0.5,0.3,0.9,0.9,1.2,1.4c0.8,1.1,0.9,2.3-0.3,3.3c-0.9,0.8-1.9,0.6-2.8,0c-1.5-1-2.3-2.9-4.3-3.2
		c-1,1.6-0.1,2.9,0.7,4c2,2.6,4.1,5.2,6.1,7.9c1.1,1.5,3.7,3.1,1.2,5.1c-2.4,2-3.4-1-4.9-2.2c-0.6-0.5-1.2-1.1-1.8-1.7
		c-0.5-0.7-1-2.3-2-1.5C458.2,782.9,459.3,784,460.1,784.9z M564.1,319.4l0.1,0c1.6-0.5,3.2-0.8,4.7-1.4c25.6-10.2,50-22.5,72.8-38
		c8.2-5.6,16.1-11.6,23.4-18.3c10.2-9.2,18.6-19.9,25.8-31.6c13.3-21.5,23.8-44.2,31.8-68.2c1.3-1.4,1.4-3.3,1.8-5.1
		c4.3-9.8,7.6-20,10.8-30.2c9.2-29.5,18.2-59.1,27.2-88.7c2.2-7.1,5.1-13.9,6.3-21.3c1.5-3.4,3.2-6.7,2.8-10.8
		c-3.5,0.5-5.6,2.6-7.9,4.5c-0.6,0.2-1.2,0.2-1.7,0.5c-12.9,7.7-26.2,14.8-39.6,21.6c-7.1,3.6-14.2,7.4-21.3,11.1
		c-2.3,0.5-4.1,2-6,3.2c-2.2,1.1-4.5,2-6.7,3.2c-13.5,7.2-26.7,15-39.6,23.1c-36.1,22.9-69.4,49.3-98.4,80.9
		c-35.9,39-56.6,85.4-68.1,136.4c-1.1,4.7-1,4.9,3.8,6.8c7.5,2.9,15.1,5.6,22.9,7.5c1.5,1.2,3.2,1.4,5,1.6
		c9.7,4.7,18.9,10.1,24.8,19.6c1.1,1.8,3,1.8,4.3,1.2c4.7-2.3,10-2.6,14.4-5.3c1.9-0.1,3.3-1.3,4.8-2.2
		C563.1,320.1,563.6,319.9,564.1,319.4z M210.1,79.2c-0.4-0.6-1-0.9-1.7-0.8c-1.5-2-3.8-2.5-6.1-3c-13.5-6.3-27.8-9.9-42.4-12.7
		c-3.2-0.6-6.6-0.1-9.5,1.7c-0.8,0.2-1.6,0.4-1.9,1.4c-3.5,2.3-3.5,5.9-3.3,9.4c0.3,4.7,0.9,9.4,1.7,14.1c3.5,20.9,6.1,42,8.2,63.1
		c0.9,9,1.2,18,3.4,26.9c-0.3,1.3-0.2,2.5,0.3,3.7c2.6,23.5,7.3,46.5,16.7,68.3c7.2,16.6,17.5,31.3,30,44.4c3,3.2,3.1,3.2,4.9,0.4
		c1-1.5,1.7-3.1,2.5-4.7c2-1.8,3.1-4.4,4.5-6.6c5.2-8.5,11-16.4,19.5-22c1.4-0.2,2.8-0.3,3.8-1.4c5.1-1.4,10.2-0.8,15.2,0.6
		c7.9,2.3,16,1.8,23.9,0c5.5-1.3,5.7-1.6,5.3-7c-1.5-20.6-3.4-41.2-7.2-61.5c-5.9-31.5-16.5-60.9-36.6-86.3
		C232.6,96,223.1,85.8,210.1,79.2L210.1,79.2z M167.4,328.3c-5.2,3.3-7.9,7.8-10.4,12.3c-4.8,8.6-11.1,15.4-20.4,19.1
		c-1.5,0.6-2.9,1.6-4.3,2.5c-8.8,6.3-14.3,14.2-13.6,25.6c0.3,4.3,0.2,8.7,1,13c2.8,14.9,2.4,29.6-3.4,43.9
		c-1.9,4.9-2.4,10-2.3,15.2c0.3,8.6,1.8,16.9,5.2,24.7c5.6,13,10.2,26.2,11.6,40.3c0.9,9.3,4.5,17.5,9.6,25.2
		c15.4,23.2,33.1,44.6,53.2,63.7c15.3,14.6,32.5,26.9,50.1,38.6c20.2,13.5,41.3,25.2,64.6,32.4c34.2,10.5,67.3,9.7,98.3-10.3
		c4.2-2.7,9-4,13.9-4.8c9.5-1.6,19-1.5,28.5-1c14.8,0.8,26.5-4.5,34.1-17.3c9-15.3,20-28.8,33.3-40.6c7.2-6.4,11-15,12.3-24.5
		c1.3-9.6,2.4-19.3,3.7-28.9c1.9-14.1,5.9-27.5,13.8-39.5c4.6-6.9,9.2-13.8,13.7-20.7c5.1-7.8,10-15.7,12.9-24.7
		c4.4-13.5,3.9-26.4-3.9-38.7c-4.6-7.4-9.7-14.4-14.6-21.6c-8.3-12-12.5-25.1-12.2-39.6c0.1-7.9,0.2-15.7,0.2-23.6
		c-0.2-18.3-9-30.9-25.4-38.4c-7.2-3.3-14.7-5.5-22.2-7.7c-15.8-4.6-28.2-13.4-36.7-27.7c-3.8-6.4-8.2-12.5-12.9-18.2
		c-8.2-9.9-18.4-14.3-31.3-12c-7.5,1.3-15.1,2.5-22.7,3.2c-3.8,0.4-5.2,1.7-5.7,5.5c-2.7,17.8-4.2,35.7-4.3,53.8c0,3.7,0,7.5,0,11.2
		c0,1.3-0.5,2.6-1.9,2.8c-1.8,0.2-2.5-1.1-2.7-2.7c-0.1-0.6-0.1-1.2-0.1-1.9c-0.3-13.9,0.2-27.7,1.6-41.5c0.9-8.4,1.9-16.8,2.9-25
		c-1.1-0.9-2.1-0.7-3.1-0.6c-14.7,1.4-28.8-1.3-42.7-5.4c-9-2.7-17.5-1.9-25.4,3.6c-4.8,3.3-9.6,6.5-14.5,9.6
		c-12.7,8.1-26.4,10.4-41,6.2c-8.4-2.4-15.5-0.1-21.7,5.5c-2.6,2.4-5,5-6.9,8c-5.2,8-10.4,15.9-15.5,23.9
		c-6.4,10-14.7,17.2-26.6,19.9c-3.2,0.7-6.3,2.1-9.4,3.1c-1.8,0.6-2.1,1.7-1.2,3.3c0.9,1.6,1.9,3.2,2.9,4.8
		c6.1,10.4,11.8,20.9,16,32.2c0.5,1.4,1,2.7,1.3,4.1c0.2,1.1-0.4,2-1.4,2.5c-1.1,0.5-2.1,0-2.6-1c-0.7-1.3-1.1-2.6-1.7-4
		C182.1,353.2,175.3,340.7,167.4,328.3z"/>
	<path d="M714,746c1.6,1.3,3.1,2.6,4.7,4c0.9,0.8,1.8,1.8,1,3.2c-0.6,1-1.4,1.4-2.6,1.1c-0.9-0.2-2-0.9-2.5,0.6
		c-0.3,0.9,0.5,1.4,1,2c1.5,1.6,5.4,2.7,2.8,5.6c-2.1,2.3-3.9-0.9-5.7-1.9c-0.8-0.4-1.5-1.4-2.9-1c0,4.7,2.1,8.7,4.5,12.5
		c1,1.6,2.2,3,3.2,4.6c0.9,1.3,2.3,2.8,0.4,4.3c-1.9,1.5-3,0-4-1.4c-4.1-5.3-7.5-10.9-8.7-17.6c-1.6-8.8-2.8-17.6-3.4-26.4
		c-0.6-8.6-1.5-17.2-1.3-26c-1.1,0.1-1.8,0-2.2,0.2c-17.1,9-35.6,13-54.5,15.7c-16.4,2.3-32.9,4-49.4,3.7
		c-13.2-0.2-26.4-1.7-39.5-3.7c-3.7-0.5-7.5-1.1-10.7-3.1c-3-1.8-4.4-0.4-6,1.9c-5.1,7.1-9.1,14.8-12.5,22.8
		c-2.7,6.5-4.9,13.1-7.1,19.8c-1,3-0.6,5.1,1.4,7.3c1.2,1.4,2.4,2.9,3.6,4.3c0.7,0.9,0.9,1.8,0.5,2.9c-0.6,1.5-1.9,1.3-3.2,1.2
		c-1.4-1.9-2.6-3.9-5.6-5.4c0.7,2.9,1.7,4.5,3.3,5.9c1.3,2.1,2.8,4.1,4,6.3c1.4,2.6,0.9,4.2-1.9,4.1c-3.6-0.1-2.8,1.3-1.8,3.3
		c0.4,0.7,0.9,1.4,1.1,2.2c0.4,1.1,0.2,2-0.9,2.6c-1,0.6-2,0.3-2.8-0.4c-1.4-1.1-1.5-3.4-3.9-4.1c-1.3,5.6-1.1,11,0.8,16.3
		c0.7,2,2.8,4.7-0.3,5.8c-3.1,1.1-3.2-2.3-4-4.3c-2.8-6.8-2.3-13.7-1.1-20.7c3.4-20.7,9.2-40.6,18.7-59.4c2.2-4.2,4.4-8.5,7.4-12.1
		c2.6-3,3.3-5.8,1.5-9.3c2.5-0.3,4.9-0.8,7.4-1c12.6-1,25.2-1.7,37.8-2.8c15.9-1.5,31.5-4.6,46.3-10.8c15.8-6.7,27.8-17.1,36-32.5
		c18-34.1,22.8-70.5,19.9-108.4c-1.2-16.3-3.1-32.6-4.3-48.9c-1.5-20.7-7.3-39.8-19-57c-7-10.2-14.2-20.3-21.4-30.5
		c-1-1.5-2.8-2.6-2.1-4.9c3.6-1,6.9-0.5,10,1.6c23.2,16.1,43.4,35.2,56.5,60.6c14.1,27.4,22.9,56.5,26.8,87.2
		c2.7,21.2,5.2,42.3,4.5,63.7c-0.6,17.6-2.4,35-9.3,51.6c-3.5,8.4-8.2,15.8-15.5,21.3c-2.9,2.2-3.7,4.5-3.5,7.8
		c0.3,5.2,0.4,10.3,0.4,15.5c0,4.1,1.6,7,5.1,9.2c2.1,1.3,4,2.9,6,4.4c1.2,0.9,2.3,1.9,1.3,3.6c-1,1.7-2.4,1.1-3.8,0.6
		c-2.1-2.1-4.4-3.7-7.2-4.7C708.6,742.4,711.1,744.4,714,746z M711,750.2c-0.6-0.4-1-1.5-1.9-0.7c-0.9,0.7-0.3,1.4,0.3,1.9
		c0.7,0.7,1.3,1.4,2.1,2c0.4,0.3,1,0.7,1.6,0.1c0.7-0.7,0.5-1.4-0.1-2C712.3,751,711.6,750.6,711,750.2z M516.1,789.5
		c-0.3,0.1-0.5,0.3-0.8,0.4c0.1,0.1,0.3,0.4,0.4,0.4c0.3-0.1,0.6-0.3,0.8-0.4C516.4,789.8,516.3,789.7,516.1,789.5z M517.6,792.3
		c-0.2-0.2-0.3-0.3-0.4-0.4c-0.1,0.3-0.3,0.5-0.4,0.8c0,0.1,0.3,0.3,0.4,0.4C517.3,792.8,517.5,792.5,517.6,792.3z"/>
	<path class="st6" d="M635.8,416.8c-0.7,2.2,1.1,3.4,2.1,4.9c7.1,10.2,14.3,20.3,21.4,30.5c11.8,17.2,17.6,36.3,19,57
		c1.2,16.3,3,32.6,4.3,48.9c2.9,37.8-1.9,74.2-19.9,108.4c-8.1,15.5-20.2,25.9-36,32.5c-14.8,6.3-30.4,9.4-46.3,10.8
		c-12.6,1.2-25.2,1.9-37.8,2.8c-2.5,0.2-4.9,0.7-7.4,1c-13,0-26,0.4-38.9-0.2c-9.6-0.4-19.1-2-28.1-5.7
		c55.4-3.2,96.7-30.9,128.1-74.8c23.3-32.6,36.3-69.5,41-109.1c4.8-39.8-0.3-78.3-17.5-114.9c-2.5-5.2-5.3-10.2-8-15.3
		c2-0.5,2.9,1.2,4,2.2c6,5.6,11.5,11.6,16.3,18.2C633,415.4,634.1,416.5,635.8,416.8z"/>
	<path class="st6" d="M611.6,393.4c-0.7-0.3-0.9-0.9-0.9-1.6C611.6,392,612,392.5,611.6,393.4z"/>
	<path class="st6" d="M167.4,328.3c7.9,12.4,14.7,24.9,19.9,38.2c0.5,1.3,1,2.7,1.7,4c0.5,0.9,1.5,1.5,2.6,1c1-0.5,1.6-1.4,1.4-2.5
		c-0.3-1.4-0.8-2.8-1.3-4.1c-4.2-11.3-9.9-21.8-16-32.2c-0.9-1.6-1.9-3.2-2.9-4.8c-0.9-1.6-0.6-2.7,1.2-3.3c3.1-1,6.2-2.4,9.4-3.1
		c11.9-2.7,20.2-9.9,26.6-19.9c5.1-8,10.3-16,15.5-23.9c1.9-3,4.3-5.6,6.9-8c6.3-5.6,13.3-7.9,21.7-5.5c14.6,4.1,28.3,1.8,41-6.2
		c4.9-3.1,9.7-6.3,14.5-9.6c7.9-5.5,16.5-6.2,25.4-3.6c14,4.1,28.1,6.8,42.7,5.4c1-0.1,2.1-0.3,3.1,0.6c-1,8.2-2,16.6-2.9,25
		c-1.4,13.8-1.9,27.7-1.6,41.5c0,0.6,0,1.2,0.1,1.9c0.2,1.6,0.9,2.9,2.7,2.7c1.4-0.2,1.9-1.5,1.9-2.8c0-3.7,0-7.5,0-11.2
		c0-18,1.6-35.9,4.3-53.8c0.6-3.8,1.9-5.1,5.7-5.5c7.6-0.7,15.2-1.9,22.7-3.2c12.9-2.2,23.1,2.1,31.3,12c4.8,5.7,9.1,11.8,12.9,18.2
		c8.5,14.2,20.9,23.1,36.7,27.7c7.5,2.2,15.1,4.4,22.2,7.7c16.4,7.5,25.3,20.2,25.4,38.4c0.1,7.9,0,15.7-0.2,23.6
		c-0.3,14.6,3.9,27.7,12.2,39.6c4.9,7.1,10,14.2,14.6,21.6c7.8,12.3,8.3,25.2,3.9,38.7c-2.9,8.9-7.8,16.9-12.9,24.7
		c-4.5,6.9-9.1,13.8-13.7,20.7c-8,12-11.9,25.4-13.8,39.5c-1.3,9.6-2.4,19.3-3.7,28.9c-1.3,9.5-5.1,18.1-12.3,24.5
		c-13.3,11.8-24.3,25.3-33.3,40.6c-7.5,12.7-19.3,18.1-34.1,17.3c-9.5-0.5-19-0.6-28.5,1c-5,0.8-9.7,2.1-13.9,4.8
		c-31,20-64.1,20.8-98.3,10.3c-23.3-7.2-44.4-18.9-64.6-32.4c-17.6-11.7-34.8-24.1-50.1-38.6c-20.1-19.2-37.8-40.6-53.2-63.7
		c-5.1-7.7-8.7-16-9.6-25.2c-1.4-14.2-6-27.4-11.6-40.3c-3.4-7.8-5-16.2-5.2-24.7c-0.2-5.2,0.3-10.4,2.3-15.2
		c5.7-14.3,6.1-29,3.4-43.9c-0.8-4.3-0.8-8.6-1-13c-0.7-11.3,4.8-19.3,13.6-25.6c1.3-1,2.7-1.9,4.3-2.5c9.3-3.8,15.6-10.6,20.4-19.1
		C159.5,336.1,162.2,331.6,167.4,328.3z M253.3,603.1c7-0.1,11.9-0.7,16.8-1.2c3.5-0.3,4.9-2.1,5.7-5.3c3-12,2.2-23.8-2.1-35.3
		c-5.6-14.8-16-25.8-28-35.6c-16.4-13.5-35-16.2-55.4-12.8c-15.3,2.6-28.8,10-43.1,15.2c-0.4,0.1-0.8,0.3-1.1,0.5
		c-1.1,0.8-1.5,1.9-1,3.2c0.4,1.1,1.4,1.6,2.5,1.4c1.6-0.3,3.3-0.7,4.7-1.4c2.3-1.1,3.4-0.4,4,2c0.3,1.2,0.7,2.4,1.1,3.5
		c9,24.8,24.4,44,48.6,55.2C221.5,599.8,238.2,602.6,253.3,603.1z M447.9,477.2c-1.9-0.1-3.6-0.3-5.2-0.4
		c-17.6-0.8-32.4,4.8-44.1,18.4c-19.7,23-26.2,50.1-25.5,79.5c0.1,4,0.7,4.4,5,4.6c6.4,0.3,12.8-0.2,19.2-1.2
		c23.5-3.8,43-14.4,57-33.9c11-15.3,15.3-32.8,15.6-51.4c0-2.6-1.3-5.9,0.4-7.8c2.2-2.3,5.4,0.2,8.2,0.2c1.8,0,4,1,4.6-1.6
		c0.6-2.5-1.5-3-3.4-3.5c-1-0.3-2-0.4-3.1-0.5C467.1,478.1,457.4,477.3,447.9,477.2z"/>
	<path class="st7" d="M509.1,304.7c-7.8-1.9-15.4-4.5-22.9-7.5c-4.8-1.9-4.9-2.1-3.8-6.8c11.5-51,32.2-97.4,68.1-136.4
		c29.1-31.6,62.3-58,98.4-80.9C661.8,65,675,57.2,688.5,50c2.2-1.2,4.4-2.1,6.7-3.2c1,2.8-0.6,4.7-2,6.8
		c-5.2,7.7-9.9,15.7-13.4,24.3c-4.5,10.8-7.4,22.1-6.2,33.7c1,9.1,0.4,18.1,0.9,27.2c0.1,1.8-0.6,3.1-1.8,4.5
		c-8.6,9.7-17.1,19.5-25.6,29.3c-8.4,9.6-16.8,19.2-25,29c-11.7,14-25,26.3-38.7,38.2c-7.4,6.5-15.1,12.8-22.6,19.2
		c-6.6,5.6-13.1,11.3-19.7,16.9c-10,8.3-20.1,16.4-30.1,24.6C509.3,301.5,509.1,303,509.1,304.7z"/>
	<path class="st7" d="M557.7,321.8c-4.5,2.7-9.8,3-14.4,5.3c-1.3,0.6-3.2,0.6-4.3-1.2c-5.9-9.5-15.1-14.9-24.8-19.6
		c-0.1-3.5,2.7-4.8,4.9-6.6c10.7-8.8,21.4-17.5,31.9-26.4c9.8-8.2,19.3-16.7,29-25c9.7-8.3,19.7-16.3,28.8-25.3
		c4.1-4.1,7.7-8.7,11.7-12.8c6.9-7.1,12.8-15.1,19.4-22.4c9.8-10.8,19-22.3,28.7-33.2c8.1-9.1,16.3-18.1,23.5-27.8
		c13.5-18.2,26.4-36.8,39.2-55.6C743.1,54,754.3,36.4,765.7,19c0.8-1.2,1.5-2.5,3.2-2.4c-1.2,7.4-4.2,14.2-6.3,21.3
		c-9,29.6-18,59.2-27.2,88.7c-3.2,10.2-6.5,20.4-10.8,30.2c-8.9-0.6-17.2,1-25,5.6c-15.4,9-28.9,20.4-41.7,32.8
		c-6.7,6.5-12.9,13.3-19.2,20.1c-7.4,8-14.5,16.3-21.6,24.6c-11.4,13.5-22.2,27.5-33.1,41.5c-8.3,10.8-16.6,21.6-23.9,33
		C558.7,316.7,557.1,318.8,557.7,321.8z"/>
	<path class="st7" d="M210.2,79.2c12.8,6.5,22.4,16.7,31.1,27.8c20.1,25.4,30.7,54.9,36.6,86.3c3.8,20.3,5.7,40.9,7.2,61.5
		c0.4,5.4,0.2,5.8-5.3,7c-7.9,1.8-16,2.3-23.9,0c-5.1-1.5-10.1-2-15.2-0.6c0.4-5.9-1.3-11.4-2.4-17c-5.5-28.6-13.1-56.6-24.5-83.3
		c-2.6-6-2.7-11.1-1-17.1c2.4-8.3,4.9-16.7,5.3-25.3c0.6-11.2-1.4-22.1-6.6-32.3C210.5,84.1,209,81.9,210.2,79.2z"/>
	<path class="st7" d="M237,262.7c-8.4,5.6-14.2,13.5-19.5,22c-1.4,2.3-2.4,4.8-4.5,6.6c-3-1.6-3.3-4.7-3.2-7.4
		c0.1-4.4-0.9-8.6-1.7-12.8c-4.3-22.7-11-44.7-20.3-65.8c-2.9-6.6-6.3-12.9-10.6-18.8c-4.9-6.8-10.8-9.1-18.6-7.2
		c-2.2-8.8-2.5-17.9-3.4-26.9c-2.1-21.1-4.7-42.1-8.2-63.1c-0.8-4.7-1.4-9.4-1.7-14.1c-0.2-3.4-0.2-7.1,3.3-9.4
		c0.9,1.8,1.8,3.7,3.3,5.2c13,13.9,24.1,29.2,34.2,45.4c9,14.4,16.7,29.5,23.2,45.2c6.1,14.9,11.5,30.1,15.7,45.6
		C229.9,225.6,234.3,244,237,262.7z"/>
	<path class="st7" d="M722.8,161.9c-8,24-18.5,46.7-31.8,68.2c-7.2,11.6-15.6,22.4-25.8,31.6c-7.4,6.6-15.2,12.7-23.4,18.3
		c-22.8,15.5-47.2,27.8-72.8,38c-1.5,0.6-3.1,0.9-4.7,1.4c-0.9-3.2,1.5-5.1,3-7.1c19.1-26.1,38.4-52,59.8-76.3
		c13.3-15.2,26.4-30.5,41.5-44.1c9.1-8.1,18.4-15.9,28.7-22.4C705,164.5,713.1,160.4,722.8,161.9z"/>
	<path class="st8" d="M768.9,16.5c-1.8-0.1-2.4,1.2-3.2,2.4c-11.4,17.5-22.6,35.1-34.3,52.3c-12.8,18.7-25.7,37.4-39.2,55.6
		c-7.2,9.7-15.4,18.8-23.5,27.8c-9.7,10.9-18.9,22.4-28.7,33.2c-6.7,7.3-12.5,15.3-19.4,22.4c-4,4.1-7.5,8.7-11.7,12.8
		c-9.1,9-19.1,17-28.8,25.3c-9.7,8.3-19.3,16.8-29,25c-10.5,8.9-21.2,17.6-31.9,26.4c-2.2,1.8-5,3.1-4.9,6.6c-1.8-0.3-3.6-0.4-5-1.6
		c0-1.7,0.2-3.2,1.7-4.4c10.1-8.1,20.2-16.3,30.1-24.6c6.7-5.5,13.1-11.3,19.7-16.9c7.5-6.4,15.1-12.7,22.6-19.2
		c13.7-11.9,27-24.3,38.7-38.2c8.2-9.8,16.7-19.3,25-29c8.5-9.8,17-19.6,25.6-29.3c1.2-1.3,1.9-2.7,1.8-4.5
		c-0.4-9,0.1-18.1-0.9-27.2c-1.2-11.6,1.7-22.9,6.2-33.7c3.6-8.6,8.2-16.6,13.4-24.3c1.4-2,3.1-4,2-6.8c1.9-1.2,3.7-2.7,6-3.2
		c2.2,1.5,2.1,3.4,0.8,5.4c-0.9,1.4-1.8,2.8-2.7,4.1c-5.6,8.2-10.8,16.6-15,25.6c-1.2,2.6-1,4.2,2.1,5.1c4,1.1,8,2.3,12.1,2.4
		c11.3,0.3,20.2-5.2,26.3-13.8c12.8-18.2,24.7-37.1,37-55.6c1.3-1.9,2.4-3.9,2.1-6.3c2.2-1.9,4.4-4.1,7.9-4.5
		C772.1,9.8,770.4,13.1,768.9,16.5z M712.9,89.1c-1.5-0.1-2.2-0.4-2.7-0.2c-8.1,3.3-16.1,2.2-24.1-0.3c-4.4-1.4-4.2-1.2-5.7,3.4
		c-4.3,13.4-0.8,26.9-0.5,40.3c0,0.1,0.3,0.2,1,0.6C692.6,119.3,702.6,104.4,712.9,89.1z"/>
	<path class="st7" d="M763.8,10.3c0.3,2.4-0.8,4.4-2.1,6.3c-12.3,18.6-24.2,37.5-37,55.6c-6.1,8.6-15,14.1-26.3,13.8
		c-4.1-0.1-8.1-1.3-12.1-2.4c-3.1-0.8-3.3-2.4-2.1-5.1c4.2-9,9.4-17.5,15-25.6c0.9-1.4,1.9-2.7,2.7-4.1c1.2-2,1.4-3.9-0.8-5.4
		c7.1-3.7,14.2-7.5,21.3-11.1c13.4-6.8,26.7-13.9,39.6-21.6C762.6,10.5,763.3,10.5,763.8,10.3z"/>
	<path class="st7" d="M205.6,295.7c-12.5-13.1-22.8-27.8-30-44.4c-9.4-21.8-14.1-44.8-16.7-68.3c7.4-1.1,12.1,3,15.9,8.5
		c4.1,6,7.2,12.5,9.9,19.2c7.7,18.7,14.1,37.7,17.9,57.6C204.3,277.3,206.7,286.3,205.6,295.7z"/>
	<path class="st8" d="M237,262.7c-2.7-18.8-7.1-37.2-12-55.5c-4.2-15.6-9.5-30.8-15.7-45.6c-6.5-15.7-14.2-30.7-23.2-45.2
		C176,100.4,164.9,85,151.9,71.1c-1.5-1.6-2.3-3.4-3.3-5.2c0.3-1,1.1-1.2,1.9-1.4c1.3,0.5,2.8,0.6,3.8,1.9
		c5.1,6.7,11.3,12.5,16.2,19.4c2.4,3.3,5.5,6,9.3,7.9c9.6,4.8,20.2,7.1,29.9,11.7c0.5,0.2,1.2,0,1.8,0c1.1-1.8,0.5-3.6,0.2-5.4
		c-1.4-6.8-4.2-12.9-7.8-18.7c-1.2-1.9-1.7-3.7-1.5-5.8c2.3,0.5,4.6,0.9,6.1,3c0.3,0.8,0.8,1.2,1.7,0.8c0,0,0.1,0,0.1,0
		c-1.2,2.7,0.3,4.8,1.4,7c5.2,10.2,7.2,21.1,6.6,32.3c-0.5,8.6-2.9,17-5.3,25.3c-1.8,6-1.6,11.1,1,17.1
		c11.4,26.8,18.9,54.8,24.5,83.3c1.1,5.6,2.8,11.2,2.4,17C239.8,262.4,238.3,262.5,237,262.7z M207.7,145.1c2.1-8.4,4-15.7,5.6-23
		c0.5-2.2,0.1-4.5,0.1-6.8c0-1.6-0.6-2.7-2-3.5c-8.8-4.9-18.2-8.2-29-11C191,115.8,199,129.9,207.7,145.1z"/>
	<path class="st7" d="M202.4,75.4c-0.2,2.1,0.4,3.9,1.5,5.8c3.5,5.8,6.4,12,7.8,18.7c0.4,1.8,0.9,3.6-0.2,5.4c-0.6,0-1.3,0.2-1.8,0
		c-9.7-4.6-20.3-6.8-29.9-11.7c-3.8-1.9-6.9-4.6-9.3-7.9c-5-6.8-11.1-12.7-16.2-19.4c-1-1.3-2.5-1.4-3.8-1.9
		c2.9-1.9,6.2-2.4,9.5-1.7C174.5,65.5,188.8,69.1,202.4,75.4z"/>
	<path class="st8" d="M722.8,161.9c-9.7-1.5-17.7,2.6-25.5,7.5c-10.3,6.5-19.6,14.3-28.7,22.4c-15.1,13.5-28.2,28.9-41.5,44.1
		c-21.4,24.3-40.8,50.2-59.8,76.3c-1.5,2-3.9,4-3,7.1c0,0-0.1,0-0.1,0c-0.6-0.6-1.1-0.4-1.5,0.2c-1.5,0.9-2.9,2.2-4.8,2.2
		c-0.6-2.9,1-5.1,2.4-7.4c7.4-11.4,15.6-22.2,23.9-33c10.8-14,21.6-28,33.1-41.5c7-8.3,14.1-16.6,21.6-24.6
		c6.3-6.8,12.6-13.7,19.2-20.1c12.7-12.4,26.3-23.7,41.7-32.8c7.7-4.5,16.1-6.1,25-5.6C724.2,158.6,724.1,160.5,722.8,161.9z"/>
	<path class="st8" d="M205.6,295.7c1.1-9.4-1.3-18.4-3-27.4c-3.8-19.9-10.2-38.9-17.9-57.6c-2.7-6.7-5.8-13.2-9.9-19.2
		c-3.8-5.5-8.5-9.6-15.9-8.5c-0.5-1.2-0.6-2.4-0.3-3.7c7.8-1.9,13.8,0.5,18.6,7.2c4.2,5.9,7.7,12.2,10.6,18.8
		c9.3,21.2,15.9,43.1,20.3,65.8c0.8,4.2,1.8,8.4,1.7,12.8c0,2.7,0.2,5.8,3.2,7.4c-0.8,1.6-1.6,3.2-2.5,4.7
		C208.7,298.9,208.6,298.8,205.6,295.7z"/>
	<path class="st7" d="M562.5,319.5c0.5-0.5,0.9-0.8,1.5-0.2C563.6,319.9,563.1,320.1,562.5,319.5z"/>
	<path class="st8" d="M389.2,246c-1.3,0.5-2.4,0.6-1.8-1.4C388.1,245.1,388.7,245.6,389.2,246z"/>
	<path class="st7" d="M210.1,79.2c-0.9,0.4-1.4,0-1.7-0.8C209.2,78.4,209.7,78.6,210.1,79.2z"/>
	<path d="M253.3,603.1c-15.1-0.5-31.8-3.3-47.3-10.5c-24.1-11.3-39.6-30.5-48.6-55.2c-0.4-1.2-0.8-2.3-1.1-3.5c-0.5-2.3-1.7-3.1-4-2
		c-1.5,0.7-3.1,1.1-4.7,1.4c-1.1,0.2-2.1-0.3-2.5-1.4c-0.5-1.3-0.2-2.4,1-3.2c0.3-0.2,0.7-0.4,1.1-0.5c14.3-5.2,27.8-12.6,43.1-15.2
		c20.4-3.5,38.9-0.7,55.4,12.8c12,9.9,22.4,20.8,28,35.6c4.4,11.5,5.1,23.3,2.1,35.3c-0.8,3.2-2.1,5-5.7,5.3
		C265.2,602.4,260.3,603,253.3,603.1z M178.3,564.4c-2.1-18.4,5.4-33.3,17.7-47.1c-12.3,1.8-22.8,5.2-33,9.9
		c-2.6,1.2-3.2,2.4-2.3,5.2C164.3,544.2,169.9,554.9,178.3,564.4z M217,549c-0.1-4.7-4.1-8.6-8.8-8.6c-5.1,0-8.9,4-8.6,9.2
		c0.2,4.7,4.3,8.6,8.9,8.4C213.2,557.8,217.1,553.6,217,549z"/>
	<path d="M447.9,477.2c9.5,0.2,19.2,0.9,28.8,2.4c1,0.2,2.1,0.3,3.1,0.5c1.8,0.5,3.9,1,3.4,3.5c-0.6,2.6-2.8,1.6-4.6,1.6
		c-2.8,0-6-2.6-8.2-0.2c-1.8,1.9-0.4,5.2-0.4,7.8c-0.3,18.6-4.5,36.1-15.6,51.4c-14.1,19.5-33.6,30.1-57,33.9
		c-6.3,1-12.7,1.6-19.2,1.2c-4.3-0.2-4.9-0.6-5-4.6c-0.8-29.4,5.8-56.5,25.5-79.5c11.7-13.6,26.5-19.2,44.1-18.4
		C444.4,476.9,446,477,447.9,477.2z M460.7,519.7c3.9-10.8,5-22,4.6-33.4c-0.1-2.6-1.7-2.9-3.6-3.1c-7.4-1-14.9-0.8-22.3-1
		c-1.5,0-3.2-0.5-4.7,0.9C447.4,492.4,459,502.4,460.7,519.7z M434.7,515.6c0-4.9-3.7-8.7-8.6-8.7c-4.8-0.1-8.7,3.7-8.9,8.5
		c-0.1,4.9,4.1,9.3,8.9,9.1C430.8,524.4,434.7,520.3,434.7,515.6z"/>
	<path class="st7" d="M712.9,89.1c-10.4,15.4-20.3,30.2-32,43.8c-0.7-0.4-1-0.5-1-0.6c-0.3-13.4-3.8-26.9,0.5-40.3
		c1.5-4.6,1.3-4.7,5.7-3.4c8,2.5,16,3.6,24.1,0.3C710.7,88.7,711.4,88.9,712.9,89.1z"/>
	<path class="st7" d="M207.7,145.1c-8.6-15.2-16.7-29.3-25.2-44.3c10.8,2.8,20.1,6.1,29,11c1.4,0.8,2,1.9,2,3.5
		c-0.1,2.3,0.3,4.6-0.1,6.8C211.7,129.4,209.8,136.7,207.7,145.1z"/>
	<path class="st8" d="M178.3,564.4c-8.3-9.5-14-20.2-17.6-32c-0.9-2.8-0.3-4,2.3-5.2c10.2-4.7,20.7-8.1,33-9.9
		C183.7,531.1,176.2,545.9,178.3,564.4z"/>
	<path class="st8" d="M217,549c0.1,4.6-3.9,8.8-8.5,9c-4.6,0.2-8.7-3.7-8.9-8.4c-0.2-5.2,3.5-9.2,8.6-9.2
		C212.9,540.4,216.9,544.3,217,549z"/>
	<path class="st8" d="M460.7,519.7c-1.7-17.2-13.2-27.3-26-36.6c1.5-1.5,3.2-1,4.7-0.9c7.4,0.2,14.9,0.1,22.3,1
		c2,0.3,3.5,0.5,3.6,3.1C465.6,497.7,464.5,508.8,460.7,519.7z"/>
	<path class="st8" d="M434.7,515.6c0,4.8-3.8,8.8-8.5,8.9c-4.9,0.1-9.1-4.2-8.9-9.1c0.1-4.8,4.1-8.5,8.9-8.5
		C430.9,506.9,434.7,510.7,434.7,515.6z"/>
</g>
</svg>
