<?xml version="1.0" encoding="utf-8"?>
<!-- Generator: Adobe Illustrator 23.0.1, SVG Export Plug-In . SVG Version: 6.00 Build 0)  -->
<svg version="1.1" id="Camada_1" xmlns="http://www.w3.org/2000/svg" xmlns:xlink="http://www.w3.org/1999/xlink" x="0px" y="0px"
	 viewBox="0 0 777.5 833.7" style="enable-background:new 0 0 777.5 833.7;" xml:space="preserve">
<style type="text/css">
	.st0{fill:#030404;}
	.st1{fill:#FFFFFF;stroke:#1D1D1B;stroke-width:0.25;stroke-miterlimit:10;}
	.st2{fill:#F4E1A7;}
	.st3{fill:#EEDAD2;}
	.st4{fill:#FFFFFF;}
</style>
<g>
	<path class="st0" d="M458.5,785.5c1.9,2.9,3.9,5.9,5.8,8.8c0.9,1.3,1.7,2.7,0.3,3.9c-1.7,1.5-3,0.2-4.1-1.1c-1-1.3-2-2.6-3-4.1
		c-1.3,4.8-1.2,6.7,0.5,13.1c0.4,1.4,0.8,2.8,1.3,4.1c0.7,1.8,0.7,3.5-1.4,4c-1.7,0.5-2.4-1-3-2.4c-2-5.5-3.2-11.2-3.3-17
		c-0.1-7.9,1.3-15.7,1.7-23.6c1.2-21.1-1.5-41.8-7.4-62.1c-0.7-2.5-1.9-3.6-4.5-4.2c-9.3-2.3-18-6.3-26.1-11.3
		c-5.4-3.3-10.3-7.1-12.2-13.3c-0.7,0-1.2-0.1-1.4,0c-24.5,14.4-50.8,16.7-78.2,11.9c-4.8-0.8-4.9-0.9-6.4,3.7
		c-5.5,16.7-10.5,33.6-13.2,51.1c-2.5,16.1-2.4,31.8,5.1,46.8c1.6,3.1,2.6,6.6,4,9.8c3,6.6,3.3,13.2,0.4,19.9
		c-1.2,2.7-2,5.4-3.1,8.1c-0.6,1.4-1.4,2.7-3.2,2.2c-2.3-0.7-1.7-2.6-1.1-4.1c1.2-3.3,2.5-6.6,3.7-9.9c1.8-5,1.4-9.7-1.4-14.5
		c-2.6,0.8-2.3,3.3-3.3,4.9c-0.7,1.1-1.3,2.2-2.9,1.8c-1.9-0.6-1.8-2.1-1.4-3.6c0.9-3,2.1-5.8,3.1-8.8c0.8-2.2,1.4-4.4-0.6-6.4
		c-1.7-0.1-1.7,1.5-2.3,2.4c-0.8,1.1-1.7,2-3,1.4c-1.7-0.8-1.5-2.3-1-3.8c0.9-2.3,1.8-4.6,2.8-6.9c0.7-1.6,0.9-3.1-1-4.4
		c-1.7,1-1.8,3.1-2.9,4.5c-0.9,1.2-2.1,1.5-3.3,0.8c-1-0.6-1.1-1.7-0.7-2.8c0.3-1,0.7-1.9,1.3-2.8c3.2-5.5,4.6-11.2,4.7-17.7
		c0.5-21.3,5.8-41.8,12.4-62c1.2-3.7,2.4-7.5,3.6-11.4c-6.9-2.4-13.6-4.5-20.1-7c-26.2-10.3-49.5-25.7-72.4-42.1
		c-32.1-23-57.9-52-80.8-83.9c-8.3-11.5-13.9-23.9-15-38.3c-0.9-11.1-5-21.3-9.3-31.4c-3.8-9-6.3-18.4-6.5-28.3
		c-0.1-5.9,0.4-11.7,2.6-17.1c5.4-13.3,6-27,3.4-40.9c-0.9-4.9-0.9-9.9-1.2-14.9c-0.6-11.7,4.9-20.3,13.9-26.9c2.7-2,5.6-3.6,8.6-5
		c6.2-3,10.7-7.6,14.3-13.4c3.2-5.3,6.2-10.9,11.1-14.9c2.5-2,0.8-3.6-0.3-5.3c-6.4-9.9-13.4-19.5-20.8-28.7
		c-30.9-38.4-67.6-70-110.6-94.4c-4-2.3-7.7-3.9-12.7-2.2c-4.6,1.6-9.9,1-14.6-1.1c-2-0.9-3.7-2.2-3.7-4.5c0-2.4,1.8-3.6,3.8-4.5
		c3-1.4,6.2-1,9.2-0.4c4.7,0.9,9.2,2.5,13.4,4.8c57.1,31,103.5,73.6,139.5,127.7c2.9,4.3,2.9,4.3,7.7,2.7c3.7-1.2,7.5-2.4,11.3-3.5
		c7.6-2.3,13.6-6.7,18.5-12.9c2.1-2.7,2-4.3-0.2-6.8c-6.6-7.2-12.4-15-18-23c-13-18.7-20-39.9-24.7-61.9
		c-5.2-24.6-7.4-49.6-9.8-74.6c-1.6-16.5-4-32.9-6.6-49.3c-0.9-5.3-1.8-10.6-1.7-16.1c0.1-8.4,4.4-13,12.8-13.9
		c2.9-0.3,5.8-0.1,8.7,0.5c12.5,2.9,24.9,6.3,36.9,11c17.7,7,31.1,19.4,42.7,34.2c20.1,25.8,30.9,55.5,36.8,87.3
		c3.8,20.4,5.6,41.1,7.1,61.8c0.1,1.2,0.2,2.4,0.3,3.8c2.5,0.4,4.1-1.2,5.7-2.2c4.6-2.8,9.1-5.8,13.5-9c9.9-7.1,20.5-7.2,31.7-3.6
		c12.9,4.2,26.2,5.6,39.7,4.7c3-0.2,3.7-1.6,4.2-4.2c3.9-20.2,9.2-40,16.2-59.3c11.6-31.9,26.6-62.1,48-88.7
		c2.5-3.1,4.9-6.2,8.3-8.4c2.4-1.5,5-2.5,7.5-0.6c2.4,1.8,1.7,4.5,1.2,6.9c-0.7,3.4-2.6,6.1-5.5,8c-2.9,2-6,3.8-9.5,4.6
		c-4.4,1-7.1,3.8-9.5,7.3c-15.8,23.3-27.5,48.6-37,75.1c-6.3,17.6-11,35.6-14.7,53.9c-0.2,0.8-0.1,1.6-0.1,2.5
		c-0.6,2,0.4,1.9,1.8,1.4c7.4-0.9,14.8-1.5,22.2-2.9c16.3-3.1,28.9,2.5,38.3,15.7c4,5.6,7.7,11.3,11.7,16.9c2.5,3.5,5.1,7,7.9,10.4
		c2.5,3,5.4,5.6,9.2,7.3c1.8-3,1.6-6.1,2.4-9.1c7.9-30.6,18.8-60.1,34.8-87.5c12-20.5,27.3-38.6,43.9-55.5
		c34.2-34.7,73.7-62.4,115.9-86.3c15.3-8.7,31.1-16.6,46.8-24.5c16.7-8.4,33.1-17.1,48.8-27.2c1.8-1.2,3.6-3,6.1-2.4
		c1,1.2,0.4,2.5,0,3.6c-17.1,51.7-30.8,104.5-49.6,155.6c-7.4,20-15.8,39.6-25.8,58.5c-14.5,27.4-34.8,49.2-60.9,66
		c-28,18-57.8,32.4-89.3,43c-1.2,0.4-2.4,0.8-3.5,1.2c-0.4,0.1-0.7,0.4-1,0.7c-0.1,0.6,0,1.2,0.6,1.6c14.4,7.1,25.8,18,36.9,29.2
		c9.8,9.9,17.9,21.2,26,32.5c0,0.7,0.2,1.3,0.9,1.6c0,0,0.1,0.1,0.1,0.1c2.7,5.1,5.6,10.2,8,15.4c17.1,36.7,22.1,75.3,17.3,115.2
		c-4.8,39.7-18,76.7-41.4,109.3c-31.6,43.9-73,71.6-128.6,74.6c-5.1-0.3-10.2-0.7-15.8-1.1c0,3.2,1.1,5.8,1.8,8.5
		c3,12.3,4.8,24.8,5.3,37.5c0.2,6.3,0.6,12.5,6.6,16.5c0.5,0.3,0.9,0.9,1.2,1.4c0.8,1.2,0.9,2.3-0.3,3.3c-0.9,0.8-1.9,0.6-2.8,0
		c-1.5-1-2.3-2.9-4.3-3.2c-1,1.6-0.1,2.9,0.7,4.1c2,2.6,4.1,5.2,6.1,7.9c1.1,1.5,3.7,3.1,1.2,5.1c-2.4,2-3.5-1-4.9-2.2
		c-0.6-0.5-1.2-1.1-1.8-1.7c-0.5-0.7-1-2.3-2-1.5C456.6,783.5,457.7,784.6,458.5,785.5z M563.9,319.2l0.1,0c1.6-0.5,3.2-0.8,4.7-1.4
		c25.7-10.1,50.2-22.5,73.1-37.9c8.2-5.6,16.1-11.6,23.5-18.2c10.3-9.2,18.7-19.9,25.9-31.6c13.4-21.5,24-44.3,32.1-68.3
		c1.4-1.4,1.4-3.3,1.9-5.1c4.3-9.9,7.7-20.1,10.9-30.3c9.3-29.6,18.4-59.2,27.5-88.9c2.2-7.1,5.1-14,6.4-21.3
		c1.5-3.4,3.2-6.7,2.9-10.8c-3.5,0.4-5.7,2.6-7.9,4.5c-0.6,0.2-1.2,0.2-1.7,0.5c-13,7.7-26.3,14.8-39.7,21.6
		c-7.2,3.6-14.3,7.4-21.4,11.1c-2.3,0.5-4.1,2-6.1,3.2c-2.2,1.1-4.5,2-6.7,3.2c-13.5,7.2-26.8,14.9-39.8,23.1
		c-36.3,22.9-69.7,49.2-98.9,80.8c-36,39-56.9,85.4-68.6,136.6c-1.1,4.7-1,4.9,3.8,6.8c7.5,3,15.1,5.6,23,7.5c1.5,1.2,3.3,1.4,5,1.7
		c9.7,4.8,19,10.1,24.8,19.7c1.1,1.8,3,1.8,4.3,1.2c4.7-2.3,10-2.6,14.5-5.3c1.9,0,3.3-1.3,4.8-2.2
		C562.9,319.9,563.4,319.7,563.9,319.2z M209.8,77.6c-0.4-0.6-1-0.9-1.7-0.8c-1.5-2-3.8-2.5-6.1-3c-13.5-6.3-27.9-10-42.4-12.8
		c-3.2-0.6-6.6-0.2-9.5,1.7c-0.8,0.2-1.6,0.4-1.9,1.4c-3.5,2.3-3.5,5.9-3.3,9.4c0.3,4.7,0.9,9.5,1.6,14.1c3.4,21,6,42.1,8,63.2
		c0.9,9,1.2,18.1,3.4,26.9c-0.3,1.3-0.2,2.5,0.3,3.7c2.5,23.5,7.2,46.6,16.5,68.5c7.2,16.7,17.5,31.4,29.9,44.6
		c3,3.2,3.1,3.2,4.9,0.4c1-1.5,1.7-3.1,2.6-4.7c2-1.8,3.1-4.4,4.5-6.6c5.3-8.5,11.1-16.4,19.6-22c1.4-0.2,2.8-0.3,3.8-1.4
		c5.2-1.4,10.2-0.8,15.3,0.7c7.9,2.4,16,1.8,24,0c5.5-1.3,5.7-1.6,5.3-7c-1.5-20.6-3.3-41.3-7.1-61.7c-5.9-31.5-16.4-61.1-36.5-86.6
		C232.2,94.4,222.7,84.2,209.8,77.6L209.8,77.6z M168.3,327.1c-5.2,3.3-7.9,7.8-10.5,12.3c-4.9,8.6-11.2,15.4-20.5,19.1
		c-1.5,0.6-2.9,1.6-4.3,2.5c-8.8,6.2-14.3,14.2-13.7,25.6c0.2,4.3,0.2,8.7,1,13c2.8,15,2.3,29.7-3.5,44c-2,4.9-2.5,10-2.3,15.3
		c0.2,8.6,1.8,16.9,5.2,24.8c5.6,13,10.1,26.3,11.5,40.5c0.9,9.3,4.5,17.6,9.6,25.3c15.4,23.3,33,44.8,53.2,64
		c15.3,14.7,32.5,27.1,50.1,38.9c20.2,13.6,41.3,25.4,64.7,32.6c34.3,10.6,67.4,9.9,98.6-10.1c4.3-2.7,9-4,14-4.8
		c9.5-1.6,19-1.5,28.6-0.9c14.8,0.9,26.6-4.5,34.2-17.2c9.1-15.3,20.2-28.8,33.5-40.6c7.2-6.4,11-15,12.4-24.5
		c1.4-9.6,2.5-19.3,3.8-29c2-14.1,5.9-27.5,14-39.5c4.6-6.9,9.2-13.8,13.8-20.7c5.1-7.8,10-15.7,13-24.7c4.5-13.5,3.9-26.4-3.8-38.8
		c-4.6-7.4-9.7-14.5-14.6-21.6c-8.3-12-12.4-25.2-12.1-39.8c0.2-7.9,0.3-15.8,0.2-23.7c-0.1-18.3-8.9-31-25.4-38.6
		c-7.2-3.3-14.7-5.6-22.3-7.8c-15.8-4.6-28.2-13.5-36.7-27.8c-3.8-6.4-8.1-12.5-12.9-18.3c-8.2-9.9-18.4-14.3-31.4-12.1
		c-7.6,1.3-15.2,2.5-22.8,3.2c-3.8,0.3-5.2,1.7-5.7,5.5c-2.7,17.9-4.3,35.8-4.4,53.9c0,3.7,0,7.5,0,11.2c0,1.3-0.5,2.6-1.9,2.8
		c-1.8,0.2-2.5-1.2-2.7-2.7c-0.1-0.6-0.1-1.2-0.1-1.9c-0.3-13.9,0.3-27.8,1.7-41.6c0.9-8.4,2-16.8,3-25c-1.1-0.9-2.1-0.7-3.1-0.6
		c-14.7,1.3-28.8-1.4-42.8-5.6c-9-2.7-17.6-1.9-25.5,3.5c-4.8,3.3-9.6,6.5-14.5,9.6c-12.8,8-26.5,10.3-41.1,6.2
		c-8.5-2.4-15.5-0.1-21.8,5.5c-2.7,2.4-5,5-6.9,8c-5.2,8-10.5,16-15.6,24c-6.4,10-14.8,17.2-26.7,19.9c-3.2,0.7-6.3,2-9.5,3.1
		c-1.8,0.6-2.2,1.7-1.2,3.3c0.9,1.6,1.9,3.2,2.9,4.8c6,10.4,11.7,21,15.9,32.3c0.5,1.4,1,2.7,1.3,4.1c0.2,1.1-0.4,2-1.4,2.5
		c-1.1,0.5-2.1,0-2.6-1c-0.7-1.3-1.1-2.7-1.7-4C183,352.1,176.2,339.6,168.3,327.1z"/>
	<path class="st0" d="M713.1,747.2c1.6,1.3,3.1,2.7,4.7,4c0.9,0.8,1.8,1.8,1,3.2c-0.6,1-1.5,1.4-2.6,1.1c-0.9-0.2-2.1-0.9-2.5,0.6
		c-0.3,0.9,0.5,1.4,1,2c1.5,1.6,5.4,2.7,2.8,5.6c-2.1,2.3-3.9-0.9-5.7-1.9c-0.8-0.5-1.5-1.4-2.9-1c0,4.7,2.1,8.7,4.4,12.6
		c1,1.6,2.2,3,3.2,4.6c0.9,1.3,2.3,2.8,0.4,4.3c-1.9,1.5-3,0-4-1.4c-4.1-5.3-7.4-10.9-8.7-17.7c-1.6-8.8-2.8-17.6-3.3-26.5
		c-0.6-8.6-1.5-17.2-1.2-26.1c-1.1,0.1-1.8,0-2.3,0.2c-17.2,9-35.8,13-54.7,15.6c-16.4,2.3-33,3.9-49.6,3.6
		c-13.3-0.2-26.5-1.8-39.6-3.8c-3.7-0.6-7.5-1.1-10.7-3.1c-3-1.8-4.4-0.4-6,1.9c-5.1,7.1-9.2,14.8-12.6,22.8
		c-2.7,6.5-5,13.2-7.2,19.8c-1,3-0.6,5.2,1.4,7.4c1.2,1.4,2.4,2.9,3.6,4.3c0.7,0.9,0.9,1.9,0.5,2.9c-0.6,1.5-1.9,1.3-3.2,1.2
		c-1.4-1.9-2.6-4-5.6-5.5c0.7,2.9,1.7,4.6,3.3,5.9c1.3,2.1,2.8,4.1,3.9,6.3c1.4,2.6,0.9,4.2-2,4.1c-3.6-0.1-2.8,1.3-1.8,3.3
		c0.4,0.7,0.9,1.4,1.1,2.2c0.4,1.1,0.2,2-0.9,2.6c-1,0.6-2,0.3-2.9-0.4c-1.4-1.1-1.5-3.4-3.9-4.2c-1.3,5.6-1.1,11,0.7,16.4
		c0.7,2,2.8,4.7-0.4,5.8c-3.1,1.1-3.2-2.3-4-4.3c-2.8-6.8-2.2-13.8-1.1-20.8c3.4-20.7,9.3-40.7,18.9-59.5c2.2-4.3,4.4-8.5,7.5-12.1
		c2.6-3,3.3-5.8,1.6-9.3c2.5-0.3,4.9-0.8,7.4-1c12.6-0.9,25.3-1.6,37.9-2.7c16-1.4,31.6-4.5,46.5-10.7c15.8-6.7,28-17,36.2-32.5
		c18.1-34.2,23-70.6,20.2-108.6c-1.2-16.3-3-32.6-4.1-49c-1.4-20.7-7.2-39.9-18.9-57.1c-7-10.3-14.2-20.4-21.3-30.6
		c-1-1.5-2.8-2.7-2.1-4.9c3.6-1,6.9-0.5,10.1,1.7c23.2,16.2,43.4,35.4,56.5,60.9c14.1,27.5,22.8,56.7,26.6,87.5
		c2.6,21.2,5.1,42.4,4.3,63.8c-0.6,17.6-2.5,35.1-9.5,51.7c-3.6,8.4-8.3,15.8-15.6,21.3c-2.9,2.2-3.7,4.5-3.6,7.8
		c0.3,5.2,0.4,10.4,0.4,15.5c0,4.1,1.6,7.1,5.1,9.2c2.1,1.3,4,2.9,6,4.4c1.2,0.9,2.3,1.9,1.3,3.6c-1,1.7-2.4,1.1-3.8,0.6
		c-2.1-2.1-4.4-3.7-7.2-4.8C707.6,743.6,710.2,745.6,713.1,747.2z M710,751.4c-0.6-0.4-1-1.5-1.9-0.7c-0.9,0.7-0.3,1.4,0.3,1.9
		c0.7,0.7,1.3,1.4,2.1,2c0.4,0.3,1,0.7,1.6,0.1c0.7-0.7,0.5-1.4-0.1-2C711.4,752.2,710.7,751.9,710,751.4z M514.6,790.3
		c-0.3,0.1-0.5,0.3-0.8,0.4c0.1,0.1,0.3,0.4,0.4,0.4c0.3-0.1,0.6-0.2,0.8-0.4C514.9,790.6,514.8,790.5,514.6,790.3z M516.1,793.1
		c-0.2-0.2-0.3-0.3-0.4-0.4c-0.1,0.3-0.3,0.5-0.4,0.8c0,0.1,0.3,0.3,0.4,0.4C515.8,793.6,516,793.3,516.1,793.1z"/>
	<path class="st1" d="M635.6,417c-0.7,2.2,1.1,3.4,2.1,4.9c7.1,10.2,14.3,20.4,21.3,30.6c11.7,17.2,17.5,36.4,18.9,57.1
		c1.1,16.3,3,32.6,4.1,49c2.8,37.9-2.1,74.4-20.2,108.6c-8.2,15.5-20.3,25.9-36.2,32.5c-14.9,6.3-30.5,9.3-46.5,10.7
		c-12.6,1.1-25.2,1.8-37.9,2.7c-2.5,0.2-4.9,0.7-7.4,1c-13,0-26,0.3-39-0.3c-9.6-0.4-19.2-2.1-28.2-5.8c55.5-3,97-30.7,128.6-74.6
		c23.4-32.6,36.6-69.6,41.4-109.3c4.9-39.9-0.1-78.5-17.3-115.2c-2.4-5.2-5.3-10.3-8-15.4c2.1-0.5,2.9,1.2,4,2.3
		c6,5.6,11.5,11.7,16.3,18.3C632.8,415.6,633.8,416.7,635.6,417z"/>
	<path class="st2" d="M611.4,393.6c-0.7-0.3-0.9-0.9-0.9-1.6C611.3,392.2,611.7,392.6,611.4,393.6z"/>
	<path class="st1" d="M168.3,327.1c7.9,12.5,14.7,25,19.8,38.4c0.5,1.4,1,2.7,1.7,4c0.5,0.9,1.5,1.5,2.6,1c1-0.5,1.6-1.4,1.4-2.5
		c-0.3-1.4-0.8-2.8-1.3-4.1c-4.2-11.3-9.9-21.9-15.9-32.3c-0.9-1.6-1.9-3.2-2.9-4.8c-0.9-1.6-0.6-2.7,1.2-3.3c3.2-1,6.2-2.4,9.5-3.1
		c11.9-2.6,20.3-9.9,26.7-19.9c5.2-8,10.4-16,15.6-24c1.9-3,4.3-5.6,6.9-8c6.3-5.6,13.4-7.9,21.8-5.5c14.6,4.2,28.3,1.9,41.1-6.2
		c4.9-3.1,9.8-6.3,14.5-9.6c7.9-5.5,16.5-6.2,25.5-3.5c14,4.2,28.1,6.9,42.8,5.6c1-0.1,2.1-0.3,3.1,0.6c-1,8.3-2.1,16.6-3,25
		c-1.4,13.8-2,27.7-1.7,41.6c0,0.6,0,1.3,0.1,1.9c0.2,1.6,0.9,2.9,2.7,2.7c1.4-0.2,1.9-1.5,1.9-2.8c0-3.7,0-7.5,0-11.2
		c0.1-18.1,1.7-36,4.4-53.9c0.6-3.8,1.9-5.2,5.7-5.5c7.6-0.7,15.2-1.9,22.8-3.2c12.9-2.2,23.2,2.2,31.4,12.1
		c4.8,5.8,9.1,11.9,12.9,18.3c8.5,14.3,20.9,23.2,36.7,27.8c7.6,2.2,15.1,4.5,22.3,7.8c16.5,7.6,25.3,20.3,25.4,38.6
		c0.1,7.9-0.1,15.8-0.2,23.7c-0.3,14.6,3.9,27.7,12.1,39.8c4.9,7.2,10,14.3,14.6,21.6c7.8,12.4,8.3,25.3,3.8,38.8
		c-3,9-7.8,16.9-13,24.7c-4.6,6.9-9.2,13.8-13.8,20.7c-8,12-12,25.4-14,39.5c-1.3,9.7-2.4,19.3-3.8,29c-1.4,9.5-5.1,18.1-12.4,24.5
		c-13.4,11.8-24.4,25.3-33.5,40.6c-7.6,12.8-19.4,18.1-34.2,17.2c-9.5-0.6-19.1-0.7-28.6,0.9c-5,0.8-9.7,2.1-14,4.8
		c-31.2,20-64.3,20.7-98.6,10.1c-23.4-7.3-44.5-19.1-64.7-32.6c-17.6-11.8-34.8-24.2-50.1-38.9c-20.1-19.3-37.8-40.7-53.2-64
		c-5.1-7.8-8.7-16-9.6-25.3c-1.3-14.2-5.9-27.5-11.5-40.5c-3.4-7.9-4.9-16.2-5.2-24.8c-0.1-5.2,0.4-10.4,2.3-15.3
		c5.8-14.3,6.2-29,3.5-44c-0.8-4.3-0.7-8.7-1-13c-0.7-11.4,4.9-19.4,13.7-25.6c1.3-1,2.8-1.9,4.3-2.5c9.3-3.7,15.6-10.6,20.5-19.1
		C160.4,334.9,163.1,330.4,168.3,327.1z M251.6,602.8c7-0.1,11.9-0.7,16.9-1.2c3.6-0.3,4.9-2.1,5.7-5.3c3-12,2.3-23.8-2-35.4
		c-5.6-14.8-15.9-25.9-27.9-35.8c-16.4-13.6-35-16.4-55.5-12.9c-15.4,2.6-28.9,9.9-43.2,15.1c-0.4,0.1-0.8,0.3-1.1,0.5
		c-1.2,0.8-1.5,1.9-1,3.2c0.4,1.1,1.4,1.6,2.5,1.4c1.6-0.3,3.3-0.7,4.7-1.4c2.3-1.1,3.4-0.4,4,2c0.3,1.2,0.7,2.4,1.1,3.6
		c8.9,24.9,24.4,44.1,48.5,55.5C219.8,599.4,236.5,602.2,251.6,602.8z M447.1,477.1c-1.9-0.1-3.6-0.3-5.2-0.4
		c-17.6-0.8-32.5,4.7-44.2,18.3c-19.8,23-26.4,50.1-25.7,79.6c0.1,4,0.7,4.4,5,4.6c6.4,0.3,12.8-0.2,19.2-1.2
		c23.5-3.7,43.1-14.3,57.3-33.8c11.1-15.3,15.4-32.8,15.7-51.5c0.1-2.7-1.3-5.9,0.5-7.8c2.2-2.3,5.4,0.2,8.2,0.3
		c1.8,0,4,1.1,4.6-1.6c0.6-2.5-1.5-3-3.4-3.5c-1-0.3-2-0.4-3.1-0.5C466.3,478.1,456.5,477.3,447.1,477.1z"/>
	<path class="st1" d="M770,16.2c-1.8-0.1-2.4,1.2-3.2,2.4c-11.5,17.5-22.7,35.1-34.5,52.3c-12.8,18.8-25.9,37.4-39.4,55.6
		c-7.3,9.8-15.5,18.8-23.7,27.8c-9.8,10.9-19,22.4-28.8,33.2c-6.7,7.3-12.6,15.3-19.6,22.4c-4,4.1-7.6,8.7-11.7,12.8
		c-9.2,9-19.2,16.9-28.9,25.2c-9.7,8.3-19.4,16.8-29.2,25c-10.6,8.9-21.3,17.6-32,26.4c-2.2,1.8-5,3.1-5,6.6c-1.8-0.3-3.6-0.5-5-1.7
		c0-1.7,0.2-3.2,1.7-4.4c10.1-8.1,20.3-16.3,30.3-24.5c6.7-5.5,13.2-11.2,19.8-16.9c7.6-6.4,15.2-12.7,22.7-19.2
		c13.8-11.9,27.1-24.3,38.9-38.2c8.3-9.8,16.8-19.3,25.2-29c8.6-9.8,17.1-19.6,25.7-29.3c1.2-1.3,1.9-2.7,1.8-4.5
		c-0.4-9.1,0.1-18.1-0.8-27.2c-1.2-11.6,1.8-22.9,6.3-33.7c3.6-8.6,8.3-16.6,13.5-24.3c1.4-2.1,3.1-4,2-6.8c2-1.2,3.8-2.7,6.1-3.2
		c2.2,1.5,2.1,3.4,0.8,5.4c-0.9,1.4-1.8,2.8-2.8,4.1c-5.7,8.2-10.8,16.6-15.1,25.6c-1.3,2.6-1,4.2,2,5.1c4,1.1,8,2.3,12.1,2.4
		c11.3,0.3,20.3-5.1,26.4-13.8c12.9-18.2,24.9-37.1,37.3-55.7c1.3-1.9,2.4-3.9,2.1-6.3c2.3-1.9,4.4-4.1,7.9-4.5
		C773.2,9.4,771.5,12.8,770,16.2z M713.7,88.8c-1.6-0.2-2.2-0.4-2.7-0.2c-8.1,3.3-16.1,2.2-24.2-0.3c-4.4-1.4-4.3-1.2-5.7,3.4
		c-4.3,13.4-0.8,26.9-0.6,40.4c0,0.1,0.3,0.2,1,0.6C693.2,119,703.3,104.1,713.7,88.8z"/>
	<path class="st1" d="M236.2,261.6c-2.7-18.8-7-37.3-11.9-55.6c-4.1-15.6-9.5-30.9-15.6-45.8c-6.4-15.7-14.1-30.9-23.1-45.3
		c-10.1-16.2-21.2-31.6-34.2-45.6c-1.5-1.6-2.3-3.4-3.3-5.3c0.3-1,1.1-1.2,1.9-1.4c1.3,0.5,2.8,0.7,3.8,1.9
		c5.1,6.7,11.3,12.6,16.2,19.4c2.4,3.4,5.5,6,9.3,7.9c9.6,4.9,20.2,7.2,29.9,11.8c0.5,0.2,1.2,0,1.8,0c1.1-1.8,0.6-3.6,0.2-5.4
		c-1.4-6.8-4.2-13-7.7-18.8c-1.1-1.9-1.7-3.7-1.5-5.8c2.3,0.5,4.6,1,6.1,3c0.3,0.8,0.8,1.2,1.7,0.8c0,0,0.1,0,0.1,0
		c-1.2,2.7,0.3,4.8,1.4,7c5.2,10.2,7.2,21.1,6.5,32.4c-0.5,8.6-3,17.1-5.4,25.3c-1.8,6-1.6,11.1,0.9,17.2
		c11.4,26.9,18.8,55,24.3,83.6c1.1,5.7,2.8,11.2,2.3,17.1C239,261.3,237.6,261.4,236.2,261.6z M207.1,143.6c2.1-8.4,4.1-15.7,5.7-23
		c0.5-2.2,0.1-4.5,0.2-6.8c0-1.6-0.6-2.7-2-3.5c-8.8-4.9-18.2-8.3-29-11.1C190.5,114.2,198.5,128.3,207.1,143.6z"/>
	<path class="st1" d="M723.4,161.7c-9.7-1.5-17.8,2.6-25.6,7.5c-10.4,6.5-19.7,14.2-28.9,22.4c-15.2,13.5-28.3,28.9-41.7,44.1
		c-21.5,24.3-41,50.2-60.2,76.4c-1.5,2-3.9,4-3,7.1c0,0-0.1,0-0.1,0c-0.6-0.6-1.1-0.4-1.5,0.2c-1.5,0.9-2.9,2.2-4.8,2.2
		c-0.6-3,1-5.1,2.5-7.4c7.4-11.4,15.7-22.3,24.1-33c10.9-14,21.8-28,33.2-41.5c7.1-8.3,14.2-16.6,21.7-24.6
		c6.3-6.8,12.6-13.7,19.3-20.1c12.8-12.4,26.4-23.7,41.9-32.7c7.8-4.5,16.2-6.1,25-5.5C724.8,158.4,724.7,160.3,723.4,161.7z"/>
	<path class="st1" d="M204.7,294.5c1.1-9.4-1.2-18.4-2.9-27.5c-3.7-19.9-10.1-39-17.8-57.8c-2.7-6.7-5.8-13.2-9.9-19.2
		c-3.8-5.5-8.5-9.7-15.9-8.6c-0.5-1.2-0.6-2.4-0.3-3.7c7.8-1.9,13.8,0.5,18.6,7.3c4.2,5.9,7.7,12.3,10.5,18.9
		c9.3,21.2,15.9,43.3,20.2,66c0.8,4.2,1.8,8.4,1.7,12.8c0,2.8,0.2,5.8,3.2,7.4c-0.8,1.6-1.6,3.2-2.6,4.7
		C207.7,297.7,207.7,297.7,204.7,294.5z"/>
	<path class="st3" d="M562.4,319.4c0.5-0.5,0.9-0.8,1.5-0.2C563.4,319.7,562.9,319.9,562.4,319.4z"/>
	<path class="st4" d="M388.9,245.2c-1.3,0.5-2.4,0.6-1.8-1.4C387.7,244.3,388.3,244.7,388.9,245.2z"/>
	<path class="st3" d="M209.8,77.6c-0.9,0.4-1.4,0-1.7-0.8C208.8,76.7,209.4,76.9,209.8,77.6z"/>
	<path class="st0" d="M251.6,602.8c-15.1-0.6-31.9-3.4-47.4-10.7c-24.2-11.4-39.6-30.6-48.5-55.5c-0.4-1.2-0.8-2.4-1.1-3.6
		c-0.5-2.3-1.7-3.1-4-2c-1.5,0.7-3.1,1.1-4.7,1.4c-1.1,0.2-2.1-0.3-2.5-1.4c-0.5-1.3-0.2-2.4,1-3.2c0.3-0.2,0.7-0.4,1.1-0.5
		c14.4-5.2,27.9-12.6,43.2-15.1c20.4-3.4,39-0.6,55.5,12.9c12,9.9,22.4,20.9,27.9,35.8c4.3,11.6,5,23.3,2,35.4
		c-0.8,3.3-2.1,5-5.7,5.3C263.6,602.1,258.6,602.7,251.6,602.8z M176.6,563.8c-2-18.5,5.5-33.3,17.9-47.1
		c-12.3,1.8-22.9,5.2-33.1,9.9c-2.6,1.2-3.2,2.4-2.3,5.2C162.6,543.5,168.2,554.2,176.6,563.8z M215.4,548.4
		c-0.1-4.7-4.1-8.6-8.8-8.7c-5.1,0-8.9,4-8.7,9.2c0.2,4.8,4.3,8.6,8.9,8.4C211.5,557.3,215.5,553.1,215.4,548.4z"/>
	<path class="st0" d="M447.1,477.1c9.5,0.2,19.2,1,28.8,2.5c1,0.2,2.1,0.3,3.1,0.5c1.8,0.5,4,1,3.4,3.5c-0.6,2.6-2.8,1.6-4.6,1.6
		c-2.8,0-6-2.6-8.2-0.3c-1.8,1.9-0.4,5.2-0.5,7.8c-0.4,18.7-4.6,36.2-15.7,51.5c-14.2,19.5-33.7,30.1-57.3,33.8
		c-6.4,1-12.8,1.5-19.2,1.2c-4.3-0.2-4.9-0.6-5-4.6c-0.7-29.5,6-56.6,25.7-79.6c11.7-13.6,26.6-19.1,44.2-18.3
		C443.5,476.8,445.1,476.9,447.1,477.1z M459.7,519.7c3.9-10.9,5-22.1,4.7-33.5c-0.1-2.6-1.7-2.9-3.6-3.1c-7.4-1-14.9-0.8-22.4-1.1
		c-1.5-0.1-3.2-0.6-4.7,0.9C446.5,492.3,458.1,502.4,459.7,519.7z M433.7,515.5c0-4.9-3.7-8.7-8.6-8.8c-4.8-0.1-8.8,3.7-8.9,8.5
		c-0.2,5,4.1,9.3,8.9,9.2C429.8,524.3,433.7,520.3,433.7,515.5z"/>
	<path class="st4" d="M176.6,563.8c-8.3-9.6-14-20.3-17.6-32.1c-0.9-2.8-0.3-4,2.3-5.2c10.2-4.7,20.8-8.1,33.1-9.9
		C182.1,530.5,174.5,545.3,176.6,563.8z"/>
	<path class="st4" d="M215.4,548.4c0.1,4.6-3.9,8.8-8.5,9c-4.6,0.2-8.7-3.7-8.9-8.4c-0.2-5.2,3.6-9.2,8.7-9.2
		C211.4,539.8,215.4,543.8,215.4,548.4z"/>
	<path class="st4" d="M459.7,519.7c-1.6-17.3-13.2-27.4-26-36.8c1.5-1.5,3.2-1,4.7-0.9c7.5,0.3,14.9,0.1,22.4,1.1
		c2,0.3,3.6,0.5,3.6,3.1C464.8,497.6,463.6,508.8,459.7,519.7z"/>
	<path class="st4" d="M433.7,515.5c0,4.8-3.9,8.8-8.5,8.9c-4.9,0.1-9.1-4.2-8.9-9.2c0.2-4.8,4.1-8.5,8.9-8.5
		C430,506.8,433.7,510.7,433.7,515.5z"/>
</g>
</svg>
